<svg xmlns="http://www.w3.org/2000/svg" width="20" height="20" viewBox="0 0 20 20">
                                <path d="M10 18.542c1.15 0 2.23-.217 3.239-.651 1.009-.434 1.893-1.031 2.653-1.79.76-.76 1.356-1.645 1.79-2.654.434-1.009.651-2.088.651-3.239 0-1.15-.217-2.23-.65-3.239-.435-1.009-1.032-1.893-1.791-2.653-.76-.76-1.644-1.356-2.653-1.79-1.01-.434-2.089-.651-3.239-.651s-2.23.217-3.239.651c-1.009.434-1.893 1.03-2.653 1.79S2.752 5.96 2.318 6.97c-.434 1.01-.651 2.09-.651 3.24 0 1.15.217 2.23.65 3.238.435 1.01 1.032 1.894 1.791 2.653.76.76 1.644 1.357 2.653 1.79 1.01.435 2.089.652 3.239.652zm0-.554c-1.063 0-2.067-.206-3.011-.618-.944-.413-1.774-.966-2.49-1.66-.695-.717-1.248-1.547-1.66-2.49-.413-.945-.619-1.948-.619-3.012 0-1.063.206-2.067.619-3.01.412-.945.965-1.775 1.66-2.491.716-.694 1.546-1.248 2.49-1.66.944-.412 1.948-.619 3.011-.619 1.063 0 2.067.207 3.011.619.944.412 1.774.966 2.49 1.66.695.716 1.248 1.546 1.66 2.49.413.944.619 1.948.619 3.011 0 1.064-.206 2.067-.619 3.011-.412.944-.965 1.774-1.66 2.49-.716.695-1.546 1.248-2.49 1.66-.944.413-1.948.62-3.011.62zm0-2.213c.76 0 1.481-.147 2.165-.44.683-.293 1.275-.689 1.774-1.188.499-.499.895-1.09 1.188-1.774.293-.684.44-1.405.44-2.165s-.147-1.48-.44-2.164c-.293-.684-.69-1.275-1.188-1.774-.5-.5-1.09-.896-1.774-1.189-.684-.293-1.405-.44-2.165-.44s-1.481.147-2.165.44c-.683.293-1.275.69-1.774 1.189-.499.499-.895 1.09-1.188 1.774-.293.683-.44 1.405-.44 2.164 0 .76.147 1.481.44 2.165.293.684.69 1.275 1.188 1.774.5.5 1.09.895 1.774 1.188.684.293 1.405.44 2.165.44zm0-.554c-.694 0-1.345-.135-1.953-.407-.174-.077-.341-.161-.502-.252l-.152-.089h.003c.022 0 .049-.006.081-.017.033-.01.06-.027.082-.048L10 12.65l2.441 1.595c.066.021.125.032.18.032.054 0 .103-.021.146-.065.043-.021.076-.06.098-.114.021-.054.021-.114 0-.179l-.944-3.027 2.474-2.214c.043-.043.07-.092.08-.146.012-.054.006-.103-.015-.147-.022-.065-.055-.114-.098-.146-.043-.033-.098-.049-.163-.049h-2.995l-.944-2.767c-.043-.108-.13-.163-.26-.163s-.217.055-.26.163L8.796 8.19H5.8c-.065 0-.12.016-.163.049-.043.032-.076.081-.098.146-.021.044-.027.093-.016.147.01.054.038.103.081.146L8.08 10.86l-.944 3.256c-.021.065-.021.124 0 .179l.01.02-.065-.044c-.224-.156-.433-.327-.628-.513-.434-.456-.787-.988-1.058-1.596-.271-.607-.407-1.258-.407-1.953 0-.694.136-1.345.407-1.953.271-.607.624-1.14 1.058-1.595.456-.434.987-.787 1.595-1.058S9.306 5.195 10 5.195c.694 0 1.345.136 1.953.407.608.271 1.14.624 1.595 1.058.434.456.787.988 1.058 1.595.271.608.407 1.259.407 1.953 0 .695-.136 1.346-.407 1.953-.271.608-.624 1.14-1.058 1.596-.456.434-.987.786-1.595 1.057-.608.272-1.259.407-1.953.407zm-2.116-1.725l.781-2.637c0-.065-.005-.124-.016-.179-.01-.054-.038-.092-.081-.114L6.517 8.743H8.99c.065 0 .125-.016.179-.048.054-.033.092-.082.114-.147L10 6.4l.716 2.148c.022.065.06.114.114.147.054.032.114.048.18.048h2.473l-2.05 1.856c-.044.022-.071.06-.082.114-.01.054-.016.114-.016.179l.78 2.441-1.952-1.27c-.065-.02-.125-.032-.18-.032-.054 0-.102.011-.146.033l-1.953 1.432zM10 10.826c.13 0 .255-.02.374-.064.12-.044.223-.109.31-.196.086-.086.157-.19.211-.309.054-.12.082-.244.082-.374 0-.152-.028-.288-.082-.407-.054-.12-.125-.223-.211-.31-.087-.086-.19-.151-.31-.195-.119-.043-.244-.065-.374-.065s-.255.022-.374.065c-.12.044-.223.109-.31.196-.086.086-.157.19-.211.309-.054.12-.082.255-.082.407 0 .13.028.255.082.374.054.12.125.223.211.31.087.086.19.151.31.195.119.043.244.065.374.065zm0-.553c-.109 0-.206-.038-.293-.113-.087-.076-.13-.169-.13-.277 0-.13.043-.233.13-.31.087-.075.184-.113.293-.113.109 0 .206.038.293.114.087.076.13.179.13.309 0 .108-.043.2-.13.277-.087.075-.184.113-.293.113z" transform="translate(-32 -213) translate(20 117) translate(0 44) translate(0 44) translate(12 7) translate(0 1)"/>
</svg>
