<svg xmlns="http://www.w3.org/2000/svg" width="24" height="24" viewBox="0 0 24 24">
    <g fill="none" fill-rule="evenodd">
        <g stroke="#67757C">
            <g>
                <g>
                    <g>
                        <g>
                            <path fill-rule="nonzero" stroke-width=".5" d="M22.106 21c.082 0 .163-.032.245-.097.081-.064.108-.135.081-.212l.04-15.841h-20.9l.042 15.84c-.028.078 0 .149.081.213.082.065.163.097.245.097h20.166z" transform="translate(-30 -299) translate(20 117) translate(0 44) translate(0 132) translate(10 6)"/>
                            <path fill-rule="nonzero" stroke-width=".5" d="M12 18.75c.828 0 1.605-.156 2.332-.469.727-.312 1.363-.742 1.91-1.289.547-.547.977-1.183 1.29-1.91.312-.727.468-1.504.468-2.332 0-.828-.156-1.605-.469-2.332-.312-.727-.742-1.363-1.289-1.91-.547-.547-1.183-.977-1.91-1.29-.727-.312-1.504-.468-2.332-.468-.828 0-1.605.156-2.332.469-.727.312-1.363.742-1.91 1.289-.547.547-.977 1.183-1.29 1.91C6.157 11.145 6 11.922 6 12.75c0 .828.156 1.605.469 2.332.312.727.742 1.363 1.289 1.91.547.547 1.183.977 1.91 1.29.727.312 1.504.468 2.332.468z" transform="translate(-30 -299) translate(20 117) translate(0 44) translate(0 132) translate(10 6)"/>
                            <path fill="#67757C" fill-rule="nonzero" stroke-width=".1" d="M12.023 16.945c.047 0 .09-.02.13-.058.038-.04.058-.082.058-.13l-.001-.661.02-.002c.204-.014.397-.051.579-.11.242-.078.441-.187.597-.328.172-.14.305-.312.399-.515.093-.204.14-.43.14-.68 0-.25-.039-.457-.117-.621-.078-.164-.18-.317-.305-.457-.14-.125-.304-.238-.492-.34-.187-.102-.406-.215-.656-.34l-.54-.258c-.233-.125-.433-.23-.597-.316-.164-.086-.3-.184-.41-.293-.11-.094-.191-.203-.246-.328-.055-.125-.082-.281-.082-.469 0-.234.047-.43.14-.586.094-.156.212-.281.352-.375.14-.094.301-.164.48-.21.18-.048.364-.071.551-.071.172 0 .348.023.528.07.18.047.34.117.48.211.14.094.258.219.352.375.094.156.14.352.14.586 0 .047.02.09.059.129.04.039.082.059.129.059.062 0 .113-.02.152-.059.04-.04.059-.082.059-.129 0-.25-.047-.476-.14-.68-.095-.203-.22-.375-.376-.515-.172-.14-.375-.25-.61-.328-.175-.059-.364-.096-.566-.11l-.02-.001v-.663c0-.047-.019-.09-.058-.129-.039-.039-.082-.058-.129-.058-.062 0-.113.02-.152.058-.039.04-.059.082-.059.13v.663l-.193.022c-.129.02-.252.049-.369.088-.234.078-.438.187-.61.328-.171.14-.304.312-.398.515-.094.204-.14.43-.14.68 0 .25.035.457.105.621.07.164.176.317.316.457.125.125.286.238.48.34.196.102.419.215.669.34l.539.258c.234.125.434.23.598.316.164.086.3.184.41.293.11.094.191.203.246.328.055.125.082.281.082.469 0 .234-.047.43-.14.586-.095.156-.212.281-.352.375-.14.094-.301.164-.48.21-.18.048-.364.071-.552.071-.187 0-.37-.023-.55-.07-.18-.047-.34-.117-.48-.211-.141-.094-.259-.219-.352-.375-.094-.156-.141-.352-.141-.586 0-.047-.02-.09-.059-.129-.039-.039-.082-.059-.129-.059-.062 0-.113.02-.152.059-.039.04-.058.082-.058.129 0 .25.046.476.14.68.094.203.219.375.375.515.172.14.375.25.61.328.175.059.369.096.58.11l.005.001v.663c0 .047.02.09.06.129.038.039.089.058.151.058z" transform="translate(-30 -299) translate(20 117) translate(0 44) translate(0 132) translate(10 6)"/>
                            <path stroke-linecap="square" stroke-linejoin="round" stroke-width=".5" d="M1.551 2H22.450999999999997V4.85H1.551z" transform="translate(-30 -299) translate(20 117) translate(0 44) translate(0 132) translate(10 6)"/>
                        </g>
                    </g>
                </g>
            </g>
        </g>
    </g>
</svg>
