<svg width="21" height="20" viewBox="0 0 21 20" xmlns="http://www.w3.org/2000/svg">
    <path d="M16.5 9v1.5a4 4 0 0 1 4 4c0 .82-.25 1.58-.67 2.21l-1.09-1.09c.17-.34.26-.72.26-1.12a2.5 2.5 0 0 0-2.5-2.5v1.5l-2.25-2.25L16.5 9m0 11v-1.5a4 4 0 0 1-4-4c0-.82.25-1.58.67-2.21l1.09 1.09c-.17.34-.26.72-.26 1.12a2.5 2.5 0 0 0 2.5 2.5v-1.5l2.25 2.25L16.5 20m-9-6h-3v-3h3v3m0-10v3h-3V4h3m-5 14a2 2 0 0 1-2-2V2a2 2 0 0 1 2-2h14a2 2 0 0 1 2 2v6.17C18 8.06 17.5 8 17 8a6.5 6.5 0 0 0-6.5 6.5c0 1.29.38 2.5 1 3.5h-9m8-11.5h5v-2h-5v2m-2 3.5h-5v5h5v-5m0-7h-5v5h5V3z"  fill-rule="nonzero"/>
</svg>
