<svg xmlns="http://www.w3.org/2000/svg" width="24" height="24" viewBox="0 0 24 24">
                        <path d="M11.648 17.367c-.599 0-1.126-.17-1.582-.508-.26-.193-.489-.416-.685-.67l-.092-.125.003-.034-.007-.089c-.013-.09-.071-.162-.176-.214l-.041-.015-.076-.142c-.26-.412-.453-.865-.578-1.359l-.066-.3c-.118-.613-.19-1.18-.215-1.7.026-.104 0-.189-.078-.254s-.157-.098-.235-.098c-.26 0-.527-.071-.8-.214-.274-.144-.424-.267-.45-.372V9.477c0-.079.124-.183.371-.313.248-.13.489-.234.723-.312.078-.026.137-.066.176-.118.039-.052.071-.117.098-.195l-.04-1.836c.026-.338.066-.631.118-.879.052-.247.169-.449.351-.605.104-.157.28-.274.528-.352.247-.078.527-.117.84-.117.051 0 .084-.007.097-.02.013-.013.046-.032.098-.058.39-.287.774-.514 1.152-.684.378-.169.71-.306.996-.41.339-.104.625-.176.86-.215.234-.039.468-.058.703-.058.208 0 .423.026.644.078.222.052.41.117.567.195.208.078.37.182.488.313.117.13.228.273.332.43.078.156.13.325.156.507.026.182.013.365-.039.547 0 .182-.052.371-.156.566-.104.196-.209.385-.313.567-.052.026-.078.058-.078.097 0 .04-.013.072-.039.098l.04 1.836c-.027.078 0 .15.077.215.078.065.157.098.235.098.182 0 .28.026.293.078.013.052.032.221.058.508l-.039 1.835c.026.157-.045.293-.215.41-.169.118-.319.176-.449.176s-.221.033-.273.098c-.052.065-.091.15-.117.254.026.469-.014 1.003-.118 1.601-.104.6-.26 1.16-.468 1.68-.287.547-.625.996-1.016 1.348-.39.351-.912.527-1.563.527zm10.297 4.297l.046-.002c.04-.003.07-.009.087-.017l.117-.06c.052-.077.085-.162.098-.253.013-.091-.033-.163-.137-.215l-1.699-1.733.013-.017c.07-.094.13-.193.185-.297l.075-.16c.118-.273.163-.54.137-.8.026-.287-.02-.56-.137-.82-.117-.261-.28-.496-.488-.704-.208-.208-.443-.365-.703-.469-.26-.104-.547-.156-.86-.156-.26 0-.527.052-.8.156-.274.104-.501.26-.684.469-.234.208-.397.443-.488.703-.091.26-.15.534-.176.82.026.26.085.528.176.801.091.274.254.514.488.723.078.104.183.195.313.273.13.078.247.143.351.196.157.052.3.09.43.117.13.026.273.039.43.039.13 0 .267-.013.41-.04.143-.025.267-.064.371-.116.156-.053.293-.118.41-.196l.077-.055 1.7 1.735.074.034.063.025c.04.013.085.02.137.02l-.016-.001zm-3.265-2.07c-.157 0-.339-.04-.547-.117-.209-.079-.365-.183-.469-.313-.182-.156-.3-.325-.352-.508-.052-.182-.09-.364-.117-.547.026-.208.065-.403.117-.586.053-.182.17-.338.352-.468.104-.157.26-.274.469-.352.208-.078.39-.117.547-.117.234 0 .436.039.605.117.17.078.332.195.488.352.13.13.241.286.332.468.092.183.124.378.098.586.026.183-.006.365-.098.547-.09.183-.201.352-.332.508l.042-.054-.005.003-.076.051-.017.044-.102.078c-.054.037-.108.072-.163.104l-.167.087c-.17.078-.37.117-.605.117zm-7.013-1.563l.221-.007c.55-.034 1.03-.188 1.44-.462.469-.312.873-.729 1.211-1.25.287-.52.514-1.113.684-1.777.169-.664.254-1.348.254-2.05.156-.027.293-.079.41-.157.117-.078.24-.17.37-.273.079-.104.157-.222.235-.352.078-.13.104-.273.078-.43l.04-1.835c-.027-.183-.066-.41-.118-.684-.052-.274-.26-.45-.625-.527l.04-1.407c.155-.234.286-.475.39-.722.104-.248.156-.489.156-.723.078-.234.091-.469.04-.703-.053-.234-.118-.456-.196-.664-.156-.209-.313-.397-.469-.567-.156-.169-.364-.319-.625-.449-.208-.104-.456-.189-.742-.254-.287-.065-.56-.097-.82-.097-.339 0-.664.032-.977.097-.312.065-.651.15-1.016.254-.312.13-.644.287-.996.469-.351.182-.683.39-.996.625-.416 0-.768.059-1.054.176-.287.117-.547.28-.782.488-.182.234-.325.514-.43.84-.104.325-.143.696-.117 1.113l-.039 1.602c-.104.052-.24.11-.41.175-.17.066-.319.15-.449.254-.156.105-.273.215-.352.332-.078.118-.13.241-.156.371l.04 1.836c-.027.183.019.339.136.47.117.13.254.247.41.35.182.105.358.19.527.255.17.065.346.11.528.136 0 .704.104 1.387.312 2.051.209.664.482 1.257.82 1.777l-.113-.182-.98 1.472H6.492c-.703 0-1.321.097-1.855.293-.534.195-1.01.462-1.426.8-.365.339-.664.749-.898 1.23-.235.483-.339 1.023-.313 1.622-.026.078 0 .15.078.215s.156.097.235.097h.039c.052 0 .117-.032.195-.097s.104-.137.078-.215c.026-.573.143-1.061.352-1.465.208-.404.507-.749.898-1.035.339-.26.742-.456 1.21-.586.47-.13.925-.195 1.368-.195h1.29c.025 0 .07-.013.136-.04.065-.025.098-.052.098-.078l.966-1.465.103.116c.21.225.433.425.666.599l.237.165c.482.312 1.061.468 1.739.468h-.021z" transform="translate(-30 -167) translate(20 117) translate(0 44) translate(10 6)"/>
</svg>
