<svg xmlns="http://www.w3.org/2000/svg" width="24" height="24" viewBox="0 0 24 24">
                            <path d="M12 1.25c1.38 0 2.676.26 3.887.781 1.21.521 2.272 1.237 3.183 2.149.912.911 1.628 1.972 2.149 3.183.52 1.211.781 2.507.781 3.887s-.26 2.676-.781 3.887c-.085.198-.176.392-.272.582-.175-.151-.367-.28-.573-.387l.049-.096.17-.373c.496-1.133.743-2.337.743-3.613 0-1.276-.247-2.48-.742-3.613s-1.16-2.13-1.992-2.989c-.86-.833-1.856-1.497-2.989-1.992-1.133-.495-2.337-.742-3.613-.742-1.276 0-2.48.247-3.613.742s-2.13 1.16-2.989 1.992c-.833.86-1.497 1.856-1.992 2.989-.495 1.133-.742 2.337-.742 3.613 0 1.276.247 2.48.742 3.613s1.16 2.13 1.992 2.989c.86.833 1.856 1.497 2.989 1.992 1.133.495 2.337.742 3.613.742 1.276 0 2.48-.247 3.613-.742.265-.116.521-.24.77-.374.114.2.25.388.406.557-.29.161-.591.308-.902.442-1.211.52-2.507.781-3.887.781s-2.676-.26-3.887-.781c-1.21-.521-2.272-1.237-3.183-2.149-.912-.911-1.628-1.972-2.149-3.183C2.261 13.926 2 12.63 2 11.25s.26-2.676.781-3.887c.521-1.21 1.237-2.272 2.149-3.183.911-.912 1.972-1.628 3.183-2.149C9.324 1.511 10.62 1.25 12 1.25zm.04 3.008c.077 0 .149.032.214.097.065.066.098.137.098.215l-.001 1.105.232.02c.262.032.51.086.745.164.39.13.73.313 1.016.547.26.235.469.521.625.86.156.338.234.716.234 1.132 0 .079-.032.15-.098.215-.065.065-.15.098-.253.098-.079 0-.15-.033-.215-.098s-.098-.136-.098-.215c0-.39-.078-.716-.234-.976-.157-.26-.352-.469-.586-.625-.235-.156-.502-.274-.801-.352-.3-.078-.592-.117-.879-.117-.312 0-.618.04-.918.117-.3.078-.566.196-.8.352-.235.156-.43.364-.587.625-.156.26-.234.586-.234.976 0 .313.046.573.137.782.09.208.228.39.41.547.182.182.41.345.683.488.274.143.606.319.997.527l.898.43c.417.208.781.397 1.094.566.312.17.586.358.82.567.208.234.378.488.508.761.13.274.195.619.195 1.036 0 .416-.078.794-.234 1.132-.156.339-.378.625-.664.86-.26.234-.593.416-.996.547-.243.078-.496.132-.762.164l-.235.021v1.104c0 .078-.032.15-.097.215s-.137.097-.215.097c-.104 0-.189-.032-.254-.097-.065-.066-.098-.137-.098-.215v-1.106l-.217-.02c-.272-.03-.525-.085-.76-.163-.39-.13-.728-.313-1.015-.547-.26-.235-.468-.521-.625-.86-.156-.338-.234-.716-.234-1.132 0-.079.032-.15.098-.215.065-.065.15-.098.254-.098.078 0 .15.033.214.098.065.065.098.136.098.215 0 .39.078.716.234.976.157.26.352.469.586.625.235.156.502.274.801.352.3.078.606.117.918.117.313 0 .619-.04.918-.117.3-.078.566-.196.8-.352.235-.156.43-.364.587-.625.156-.26.234-.586.234-.976 0-.313-.045-.573-.137-.782-.09-.208-.227-.39-.41-.547-.182-.182-.41-.345-.683-.488-.274-.143-.606-.319-.996-.527l-.899-.43c-.417-.208-.788-.397-1.113-.566-.326-.17-.593-.358-.8-.567-.235-.234-.411-.488-.528-.761-.117-.274-.176-.619-.176-1.036 0-.416.078-.794.234-1.132.157-.339.378-.625.664-.86.287-.234.625-.416 1.016-.547.234-.078.483-.132.745-.164l.192-.016V4.57c0-.078.033-.15.098-.215s.15-.097.254-.097z" transform="translate(-30 -255) translate(20 117) translate(0 44) translate(0 88) translate(10 6)"/>
                            <path d="M19.18 15.96c.312 0 .599.053.86.157.26.104.494.26.702.469.209.208.371.443.488.703.118.26.163.534.137.82.026.26-.02.528-.137.801l-.075.16c-.054.104-.116.203-.185.297l-.013.017 1.7 1.733.055.034c.064.048.091.108.081.181-.013.091-.046.176-.098.254l-.117.059c-.017.008-.046.014-.087.017h-.039l-.064-.003-.064-.014-.063-.025-.073-.034-1.701-1.735-.077.055-.124.074c-.086.046-.182.087-.286.122-.104.052-.228.09-.371.117-.143.026-.28.039-.41.039-.157 0-.3-.013-.43-.04-.13-.025-.273-.064-.43-.116-.104-.053-.221-.118-.351-.196-.13-.078-.235-.169-.313-.273-.234-.209-.397-.45-.488-.723-.091-.273-.15-.54-.176-.8.026-.287.085-.56.176-.82.091-.261.254-.496.488-.704.183-.208.41-.365.684-.469.273-.104.54-.156.8-.156zm0 .626c-.157 0-.339.039-.547.117-.209.078-.365.195-.469.352-.182.13-.3.286-.352.468-.052.183-.09.378-.117.586.026.183.065.365.117.547.053.183.17.352.352.508.104.13.26.234.469.313.208.078.39.117.547.117.234 0 .436-.04.605-.117l.167-.087c.055-.032.11-.067.163-.104l.102-.078.017-.044.076-.051.005-.003-.042.054c.13-.156.241-.325.332-.508.092-.182.124-.364.098-.547.026-.208-.006-.403-.098-.586-.09-.182-.201-.338-.332-.468-.156-.157-.319-.274-.488-.352-.17-.078-.37-.117-.605-.117z" transform="translate(-30 -255) translate(20 117) translate(0 44) translate(0 88) translate(10 6)"/>
</svg>
