<?xml version="1.0" encoding="UTF-8"?>
<svg width="16px" height="16px" viewBox="0 0 16 16" version="1.1" xmlns="http://www.w3.org/2000/svg" xmlns:xlink="http://www.w3.org/1999/xlink">
    <title>E8F8424F-A469-4E6C-B27C-1D89AF1DF2C7</title>
    <defs>
        <filter color-interpolation-filters="auto" id="filter-1">
            <feColorMatrix in="SourceGraphic" type="matrix" values="0 0 0 0 0.615686 0 0 0 0 0.615686 0 0 0 0 0.619608 0 0 0 1.000000 0"></feColorMatrix>
        </filter>
    </defs>
    <g id="系統設計Guideline" stroke="none" stroke-width="1" fill="none" fill-rule="evenodd">
        <g id="icon" transform="translate(-332.000000, -693.000000)">
            <g id="alert-circle-outline" transform="translate(332.000000, 693.000000)" filter="url(#filter-1)">
                <g transform="translate(8.000000, 8.000000) scale(1, -1) translate(-8.000000, -8.000000) translate(1.000000, 1.000000)">
                    <path d="M6.3,9.1 L7.7,9.1 L7.7,10.5 L6.3,10.5 L6.3,9.1 M6.3,3.5 L7.7,3.5 L7.7,7.7 L6.3,7.7 L6.3,3.5 M7,-3.10862447e-16 C3.129,-3.10862447e-16 0,3.15 0,7 C0,8.85651543 0.737497883,10.6369928 2.05025253,11.9497475 C3.36300718,13.2625021 5.14348457,14 7,14 C10.8659932,14 14,10.8659932 14,7 C14,5.14348457 13.2625021,3.36300718 11.9497475,2.05025253 C10.6369928,0.737497883 8.85651543,-3.10862447e-16 7,-3.10862447e-16 M7,12.6 C3.9072054,12.6 1.4,10.0927946 1.4,7 C1.4,3.9072054 3.9072054,1.4 7,1.4 C8.48521234,1.4 9.90959426,1.98999831 10.959798,3.04020203 C12.0100017,4.09040574 12.6,5.51478766 12.6,7 C12.6,10.0927946 10.0927946,12.6 7,12.6 Z" id="Shape" fill="#000000" fill-rule="nonzero"></path>
                </g>
            </g>
        </g>
    </g>
</svg>