<svg width="14" height="14" viewBox="0 0 14 14" xmlns="http://www.w3.org/2000/svg" xmlns:xlink="http://www.w3.org/1999/xlink">
    <defs>
        <path d="M9.927 6.54H4.071a.488.488 0 0 1 0-.978H9.93a.49.49 0 0 1-.002.978zm0-2.648H4.071a.488.488 0 0 1 0-.978H9.93a.49.49 0 0 1-.002.978zm2.95 7.233h-1.802v.386a.488.488 0 1 1-.975 0v-.386H3.898v.386a.488.488 0 1 1-.975 0v-.386H1.122C.502 11.125 0 10.622 0 10V1.125C0 .503.502 0 1.122 0h11.756C13.498 0 14 .503 14 1.125V10a1.126 1.126 0 0 1-1.123 1.125zM1.122 10h1.803v-.253a.488.488 0 1 1 .975 0V10h6.202v-.253a.488.488 0 1 1 .975 0V10h1.803V8.467H1.122V10zm11.755-8.875H1.122v6.369h11.756V1.125h-.001z" id="ooh8f7bpoa"/>
    </defs>
    <use fill="#8C8C8C" transform="matrix(1 0 0 -1 0 13)" xlink:href="#ooh8f7bpoa" fill-rule="evenodd"/>
</svg>
