<svg width="20" height="20" viewBox="0 0 20 20" xmlns="http://www.w3.org/2000/svg">
    <path d="m19.648 2.096.09.006a.275.275 0 0 1 .184.092.692.692 0 0 1 .117.215L20 18.424l.01.058c0 .056-.03.108-.088.157a.367.367 0 0 1-.235.098H.352l-.059-.006a.408.408 0 0 1-.176-.092c-.078-.065-.104-.136-.078-.215L0 2.41l.03-.076a.697.697 0 0 1 .087-.139c.052-.065.143-.098.274-.098h19.257zm-.304 3.985H.694l-.03 11.992h18.711l-.03-11.992zM15.547 12.5c.108 0 .184.027.228.081l.04.056c.024.039.043.08.057.123l-.014 1.661H17.5l.061.005c.057.01.102.035.134.076a.547.547 0 0 1 .098.212.576.576 0 0 1-.098.179l-.036.035a.258.258 0 0 1-.159.046h-1.646l-.014 1.693.008.047c0 .047-.024.091-.073.132a.306.306 0 0 1-.196.081c-.086 0-.151-.027-.195-.081l-.04-.056a.573.573 0 0 1-.058-.123l.014-1.692-1.674-.001-.06-.005a.213.213 0 0 1-.135-.076.576.576 0 0 1-.098-.18.547.547 0 0 1 .098-.211l.037-.036a.258.258 0 0 1 .158-.045h1.678l.015-1.66-.008-.048c0-.047.024-.09.073-.132.065-.054.12-.081.163-.081zm3.789-9.74H.703L.696 5.417h18.646l-.006-2.657zM2.266 3.815a.41.41 0 0 1 .293.137c.09.091.123.189.097.293.026.13-.006.234-.097.312a.443.443 0 0 1-.293.117c-.13 0-.228-.039-.293-.117a.692.692 0 0 1-.137-.312.86.86 0 0 1 .137-.293c.065-.091.162-.137.293-.137zm1.64 0a.39.39 0 0 1 .313.137c.078.091.13.189.156.293a.594.594 0 0 1-.156.312.422.422 0 0 1-.313.117c-.078 0-.169-.039-.273-.117a.291.291 0 0 1-.117-.312c-.026-.104.013-.202.117-.293.104-.091.195-.137.273-.137zm1.719 0c.078 0 .163.046.254.137.091.091.124.189.098.293.026.13-.007.234-.098.312-.091.078-.176.117-.254.117-.156 0-.267-.039-.332-.117a.692.692 0 0 1-.137-.312.86.86 0 0 1 .137-.293c.065-.091.176-.137.332-.137z" fill-rule="nonzero"/>
</svg>
