<svg xmlns="http://www.w3.org/2000/svg" width="16" height="17" viewBox="0 0 16 17">
    <g fill="none" fill-rule="evenodd">
        <g fill="#989898">
            <g>
                <g>
                    <g>
                        <g>
                            <g>
                                <path d="M9.338 0c.175 0 .35.144.365.336l.302 2.112c.492.192.92.464 1.349.752l1.952-.8c.207 0 .413 0 .508.208l1.587 2.768c.095.176.048.384-.095.512L13.624 7.2c.047.272.063.528.063.8s-.032.528-.063.8l1.698 1.312c.143.128.19.336.095.512l-1.587 2.768c-.111.208-.317.208-.524.208l-1.952-.8c-.428.288-.857.544-1.333.752l-.302 2.112c-.031.192-.206.336-.38.336H6.163c-.222 0-.38-.144-.413-.336l-.301-2.112c-.492-.192-.937-.464-1.35-.752l-1.967.8c-.19 0-.397 0-.492-.208L.054 10.624c-.096-.176-.048-.384.095-.512L1.83 8.8c-.032-.272-.047-.528-.047-.8s.015-.528.047-.8L.15 5.888c-.159-.128-.19-.336-.095-.512L1.64 2.608c.11-.208.317-.208.492-.208l1.968.8c.412-.288.873-.544 1.349-.752L5.75.336C5.783.144 5.958 0 6.164 0zM7.751 5.6c-1.317 0-2.38 1.072-2.38 2.4 0 1.328 1.047 2.4 2.38 2.4 1.318 0 2.38-1.072 2.38-2.4 0-1.328-1.062-2.4-2.38-2.4z" transform="translate(-1298 -49) translate(12 21) translate(1264) translate(22 23) translate(0 5.326) translate(.533)"/>
                            </g>
                        </g>
                    </g>
                </g>
            </g>
        </g>
    </g>
</svg>
