<svg width="14" height="14" viewBox="0 0 14 14" xmlns="http://www.w3.org/2000/svg">
    <g fill="#8C8C8C" fill-rule="evenodd">
        <path d="M1.12 11.897v.001a.47.47 0 0 0 .662.035L6.845 7.39A.465.465 0 0 0 7 7.027a.465.465 0 0 0-.155-.365L1.782 2.12a.47.47 0 0 0-.663.036l-.055.076a.466.466 0 0 0 .091.582L5.85 7.026l-4.695 4.213a.466.466 0 0 0-.036.658z"/>
        <path d="M7.12 11.897v.001a.47.47 0 0 0 .662.035l5.063-4.542A.465.465 0 0 0 13 7.027a.465.465 0 0 0-.155-.365L7.782 2.12a.47.47 0 0 0-.663.036l-.055.076a.466.466 0 0 0 .091.582l4.695 4.212-4.695 4.213a.466.466 0 0 0-.036.658z"/>
    </g>
</svg>
