<svg width="20" height="20" viewBox="0 0 20 20" xmlns="http://www.w3.org/2000/svg">
    <path d="M1.273 3.547c-.05 0-.113.03-.187.093-.075.063-.1.144-.075.243L.973 19.194c.025.1.063.181.113.244.05.062.124.093.224.093h13.402c.1 0 .175-.03.225-.093a.629.629 0 0 0 .112-.244l-.038-15.31c.025-.1 0-.181-.074-.244-.075-.062-.138-.093-.188-.093h-2.882l-.038-.936c.025-.1 0-.181-.074-.244a.352.352 0 0 0-.225-.093h-1.086c0-.325-.068-.605-.206-.843a4.116 4.116 0 0 0-.43-.617c-.2-.15-.4-.262-.599-.337a1.908 1.908 0 0 0-.674-.112h-.749c-.25 0-.474.037-.673.112-.2.075-.4.187-.6.337-.15.174-.293.38-.43.617a1.652 1.652 0 0 0-.206.843H4.455c-.05 0-.113.031-.187.093-.075.063-.1.144-.075.244l-.038.936H1.273zm3.519 0 .037-.637h1.31c.125 0 .212-.031.262-.093a.663.663 0 0 0 .113-.206 1.685 1.685 0 0 1 .056-.674c.062-.2.143-.375.243-.524a1.58 1.58 0 0 1 .412-.3 1.25 1.25 0 0 1 .561-.112h.75c.224 0 .41.037.56.112.15.075.288.175.412.3.1.15.181.324.244.524.062.2.08.424.056.674a.663.663 0 0 0 .112.206c.05.062.138.093.262.093h1.011l.037.637H4.792zm12.503 15.01c.05 0 .106-.018.168-.055a.184.184 0 0 0 .094-.169l.674-2.395c-.025 0-.031-.013-.019-.038l.006-.02c0-.012-.008-.017-.025-.017l.038-12.616a.629.629 0 0 0-.113-.243c-.05-.063-.124-.094-.224-.094h-1.235c-.125 0-.213.031-.263.094a.629.629 0 0 0-.112.243l.038 12.616c-.025 0-.032.012-.02.037l.02.037.673 2.396c-.025.075 0 .131.075.169a.441.441 0 0 0 .187.056h.038zm.264-3.48h-.604l-.027-8.95-.04-.003a.26.26 0 0 1-.112-.047l-.043-.041a.629.629 0 0 1-.112-.243.663.663 0 0 1 .112-.206c.05-.063.125-.094.225-.094l-.032.003-.005-1.95h.673l-.006 1.949.04.002a.311.311 0 0 1 .157.056l.034.034c.05.062.087.13.112.206a.629.629 0 0 1-.112.243c-.05.062-.137.094-.262.094l.03-.002-.028 8.949zm-3.184 3.818H1.647L1.61 4.183h12.802l-.037 14.712zM17.557 6.13l.03-.002.001-.633-.031-.002h-.599l-.032.003.002.631.03.003h.599zm-4.754 11.492c.075 0 .15-.031.224-.094.075-.062.1-.143.075-.243l.038-11.492a.663.663 0 0 0-.113-.206c-.05-.063-.137-.094-.262-.094H3.22c-.1 0-.174.031-.224.094a.663.663 0 0 0-.113.206l.038 11.492c-.025.1 0 .181.075.243.075.063.137.094.187.094h9.62zm-.3-.636H3.52L3.556 6.13h8.91l.037 10.856zm-1.909-8.31c.05 0 .112-.032.187-.094.075-.063.1-.144.075-.244.025-.075 0-.143-.075-.206-.075-.062-.137-.093-.187-.093H5.428c-.05 0-.112.03-.187.093s-.1.131-.075.206c-.025.1 0 .181.075.244.075.062.137.093.187.093h5.166zm-.037 2.545c.1 0 .174-.031.224-.094a.663.663 0 0 0 .113-.206.629.629 0 0 0-.113-.243c-.05-.062-.125-.094-.224-.094H5.465c-.1 0-.174.032-.224.094a.629.629 0 0 0-.112.243.663.663 0 0 0 .112.206c.05.063.125.094.224.094h5.092zm.037 2.545c.05 0 .112-.03.187-.093s.1-.131.075-.206c.025-.1 0-.181-.075-.244-.075-.062-.137-.093-.187-.093H5.428c-.05 0-.112.031-.187.093-.075.063-.1.144-.075.244-.025.075 0 .143.075.206.075.062.137.093.187.093h5.166zm6.364 1.947h-.037c-.05 0-.113-.031-.188-.094-.074-.062-.1-.143-.074-.243-.025-.075 0-.144.074-.206.075-.062.138-.094.188-.094h.034l.003.637zm.601-.636h.035c.075 0 .15.03.225.093.075.062.1.131.075.206.025.1 0 .18-.075.243a.352.352 0 0 1-.225.094h-.037l.002-.636zm-.602.636h.6v.112l-.262 1.198-.374-1.198h.037v-.112z" fill-rule="nonzero"/>
</svg>
