<svg width="16" height="16" viewBox="0 0 16 16" xmlns="http://www.w3.org/2000/svg">
    <path d="m14.875.04-6.61 1.778c-.041.01-.093.019-.156.024a2.357 2.357 0 0 1-.39 0 1.004 1.004 0 0 1-.157-.024L1.125.04a.837.837 0 0 0-.781.14A.843.843 0 0 0 0 .882V13.02c0 .25.083.481.25.694.167.214.37.357.61.43l6.437 1.778c.177.052.385.078.625.078.094 0 .195-.005.305-.016.109-.01.21-.03.304-.062l6.61-1.794c.24-.063.442-.2.609-.414.167-.213.25-.444.25-.694V.882a.843.843 0 0 0-.344-.702.837.837 0 0 0-.781-.14zm-7.36 14.913-6.39-1.765a.241.241 0 0 1-.07-.063.147.147 0 0 1-.04-.094v-12l6.298 1.75c.03 0 .062.005.093.016.032.01.068.015.11.015v12.141zm7.5-1.922c0 .021-.015.05-.046.086a.29.29 0 0 1-.078.07l-6.375 1.72V2.78h.031l6.469-1.75v12zM10.048 5.72a.58.58 0 0 0 .14-.016l3.5-.984a.508.508 0 0 0 .29-.242.484.484 0 0 0 .054-.368.588.588 0 0 0-.14-.234.464.464 0 0 0-.22-.125.572.572 0 0 0-.265 0l-3.5.984a.508.508 0 0 0-.289.243.516.516 0 0 0-.055.382c.084.23.245.35.485.36zm0 3a.58.58 0 0 0 .14-.016l3.5-.984a.508.508 0 0 0 .29-.242.475.475 0 0 0 .046-.375.477.477 0 0 0-.234-.297.516.516 0 0 0-.383-.055l-3.5.984a.508.508 0 0 0-.289.243.516.516 0 0 0-.055.382c.084.23.245.35.485.36zm0 3h.07c.026 0 .05-.005.07-.016l3.5-.984a.508.508 0 0 0 .29-.242.475.475 0 0 0 .046-.375.477.477 0 0 0-.234-.297.516.516 0 0 0-.383-.055l-3.5.984a.508.508 0 0 0-.289.243.516.516 0 0 0-.055.382c.084.23.245.35.485.36zm-3.86-6.985-3.5-.984a.663.663 0 0 0-.382.055.401.401 0 0 0-.149.117.484.484 0 0 0-.04.555c.069.12.165.2.29.242l3.5.984c.021.01.045.016.07.016h.07a.583.583 0 0 0 .212-.04.408.408 0 0 0 .172-.124.539.539 0 0 0 .101-.196c.063-.24-.01-.427-.218-.562a.694.694 0 0 1-.125-.063zm0 3-3.5-.984a.572.572 0 0 0-.265 0 .464.464 0 0 0-.219.125.588.588 0 0 0-.14.234.795.795 0 0 0-.016.157c0 .052.01.101.031.148.021.047.047.091.078.133a.544.544 0 0 0 .11.11.344.344 0 0 0 .14.062l3.5.984a.58.58 0 0 0 .14.016.488.488 0 0 0 .306-.102.498.498 0 0 0 .18-.258c.062-.24-.011-.427-.22-.562a.694.694 0 0 1-.125-.063zm0 3-3.5-.984a.516.516 0 0 0-.382.055c-.12.067-.2.169-.243.304a.795.795 0 0 0-.015.157c0 .052.01.101.031.148.021.047.047.091.078.133a.544.544 0 0 0 .11.11.344.344 0 0 0 .14.062l3.5.984c.052.01.1.016.14.016a.488.488 0 0 0 .306-.102.498.498 0 0 0 .18-.258c.072-.25-.006-.437-.235-.562a1.022 1.022 0 0 1-.11-.063z" fill="#5789B1" fill-rule="nonzero"/>
</svg>
