<svg width="20" height="20" viewBox="0 0 20 20" xmlns="http://www.w3.org/2000/svg">
    <path d="M11.79 19.48c.12 0 .203-.03.251-.09a.602.602 0 0 0 .107-.233.634.634 0 0 0-.107-.197c-.048-.06-.131-.09-.25-.09H5.281l.094-.088.112-.126c.263-.24.466-.526.609-.86a3.15 3.15 0 0 0 .25-1.038l-.035-8.415a3.17 3.17 0 0 1 .143-.716c.072-.215.203-.394.394-.537.143-.143.34-.25.59-.322.251-.072.508-.108.77-.108h8.415c.287 0 .55.036.788.108.239.071.43.179.573.322.191.143.328.322.412.537.042.107.076.22.103.34l.028.151-.006.368a.635.635 0 0 0 .028.07l.005.012-.033 2.962c.016.064.037.12.064.167l.044.066c.047.06.119.09.214.09.072 0 .144-.03.215-.09.072-.06.096-.138.072-.233l.034-3.04.002-.004-.001-.054v-.089l-.002-.023-.033-1.91a2.414 2.414 0 0 0-.127-.953l-.07-.175a2.906 2.906 0 0 0-.59-.878 3.217 3.217 0 0 0-.95-.608 3.018 3.018 0 0 0-1.164-.215h-6.123a5.894 5.894 0 0 0-.322-.752 2.693 2.693 0 0 0-.609-.788 2.673 2.673 0 0 0-.77-.645 1.789 1.789 0 0 0-.877-.25H3.662c-.334 0-.68.083-1.038.25a2.78 2.78 0 0 0-.895.645 2.818 2.818 0 0 0-.663.895c-.155.334-.245.68-.268 1.039l.034 4.407-.007.015-.027.09.035 8.27a1.91 1.91 0 0 0 .215 1.003c.167.335.37.633.609.896.286.238.597.435.93.59a2.52 2.52 0 0 0 1.075.233l.145-.006h.003l.067.006h7.913zm-8.164-.61a1.85 1.85 0 0 1-.805-.179 3.776 3.776 0 0 1-.734-.465 5.915 5.915 0 0 1-.466-.698 1.289 1.289 0 0 1-.179-.77L1.406 8.57l.008-.015.028-.07-.036-4.511c.024-.263.096-.526.215-.788.12-.263.298-.501.537-.716a2.13 2.13 0 0 1 .716-.52 1.91 1.91 0 0 1 .788-.196H7.53c.239 0 .484.09.734.268.251.18.46.388.627.627.215.238.376.477.483.716.108.239.173.418.197.537-.024.072 0 .137.072.197s.131.09.179.09h6.445c.31 0 .609.06.895.178.287.12.526.275.717.466.214.191.376.424.483.698.107.275.173.567.197.878l-.006.35-.101-.1a2.164 2.164 0 0 0-.62-.378l-.186-.07a3.206 3.206 0 0 0-1.02-.16H8.21c-.358 0-.699.053-1.02.16a1.932 1.932 0 0 0-.77.448c-.24.215-.413.46-.52.734a3.18 3.18 0 0 0-.197.95l.036 8.414c-.024.262-.09.525-.197.788-.107.262-.269.489-.483.68a1.868 1.868 0 0 1-.645.465 1.89 1.89 0 0 1-.788.18zm14.803-.215.03-.001a.185.185 0 0 0 .063-.016 1.75 1.75 0 0 0 .143-.09.659.659 0 0 0 .054-.197c.012-.083-.018-.16-.09-.233l-2.148-2.148a.504.504 0 0 0-.054-.047l-.032-.02.086-.112c.064-.08.117-.16.16-.239l.055-.12c.072-.142.113-.286.125-.429a5.28 5.28 0 0 1 .054-.43 5.28 5.28 0 0 1-.054-.43 1.175 1.175 0 0 0-.125-.429 1.425 1.425 0 0 0-.215-.358 3.258 3.258 0 0 1-.25-.358 3.053 3.053 0 0 0-.752-.448 2.248 2.248 0 0 0-.86-.16c-.262 0-.537.053-.823.16a1.654 1.654 0 0 0-.68.448c-.144.12-.251.239-.323.358l-.215.358c-.024.143-.06.287-.107.43a.882.882 0 0 0-.036.43.882.882 0 0 0 .036.43c.047.142.083.286.107.429l.215.358c.072.12.179.239.322.358.072.096.173.185.305.269.13.083.256.149.376.197.143.071.28.119.411.143.132.024.28.036.448.036.143 0 .286-.012.43-.036.143-.024.274-.072.394-.143.167-.048.304-.114.411-.197l.1-.079.023.03.038.03 2.113 2.15c.072.047.12.077.143.089a.372.372 0 0 0 .144.018l-.022-.001zm-3.774-2.506a1.72 1.72 0 0 1-1.146-.43 1.407 1.407 0 0 1-.197-.25.998.998 0 0 1-.125-.287.476.476 0 0 1-.108-.286 1.66 1.66 0 0 0-.035-.322c.023-.096.035-.197.035-.305 0-.107.036-.209.108-.304a.788.788 0 0 1 .125-.269l.197-.268c.096-.072.18-.138.25-.197a.634.634 0 0 1 .287-.126.799.799 0 0 1 .287-.107 1.54 1.54 0 0 1 .286-.036c.143 0 .257.012.34.036.084.024.185.06.305.107a.998.998 0 0 1 .286.126c.096.06.167.125.215.197.095.095.167.185.215.268.048.084.107.173.179.269 0 .095.018.197.054.304a.537.537 0 0 1 .017.305.58.58 0 0 1-.017.322.81.81 0 0 0-.054.286 1.881 1.881 0 0 0-.18.287.71.71 0 0 1-.214.25c-.12.144-.286.251-.501.323a1.928 1.928 0 0 1-.61.107z" fill-rule="nonzero"/>
</svg>
