<svg xmlns="http://www.w3.org/2000/svg" width="24" height="24" viewBox="0 0 24 24">
                    <path d="M17.469 6.39c.182 0 .338-.025.468-.077.13-.053.26-.13.391-.235l.235-.39c.078-.13.104-.287.078-.47l.039-.312c-.026-.156-.065-.306-.117-.449-.053-.143-.144-.267-.274-.371-.078-.104-.195-.189-.352-.254-.156-.065-.299-.098-.43-.098h-2.382c-.13 0-.273.033-.43.098-.156.065-.273.15-.351.254-.13.104-.222.228-.274.371-.052.143-.09.293-.117.45l.04.312c-.027.182 0 .338.077.468l.235.391c.13.104.26.182.39.234.13.053.287.079.47.079h2.304zm.039-.663h-2.383c-.104 0-.215-.046-.332-.137-.117-.091-.163-.215-.137-.371l-.039-.313c.026-.13.085-.247.176-.351.091-.104.215-.157.371-.157h2.305c.156 0 .28.053.37.157.092.104.15.221.177.351l-.04.313c.027.156-.019.28-.136.37-.117.092-.228.138-.332.138zM13.445 9.75c.183 0 .339-.033.47-.098.13-.065.26-.15.39-.254.078-.104.156-.227.234-.37.078-.144.104-.294.078-.45l.04-.351c-.027-.157-.066-.306-.118-.45-.052-.143-.143-.267-.273-.37-.079-.105-.19-.19-.332-.255-.144-.065-.293-.097-.45-.097h-2.343c-.157 0-.306.032-.45.097-.143.065-.267.15-.37.254-.13.104-.216.228-.255.371-.039.144-.071.293-.097.45l.039.351c-.026.156-.007.306.058.45.066.143.137.266.215.37.156.105.293.19.41.254.118.065.28.098.489.098h2.265zm.04-.664H11.14c-.13 0-.248-.052-.352-.156-.104-.104-.143-.222-.117-.352l-.04-.351c.027-.13.079-.248.157-.352.078-.104.208-.156.39-.156h2.266c.183 0 .313.052.39.156.08.104.131.221.157.352l-.039.351c.026.13-.013.248-.117.352-.104.104-.221.156-.352.156zm3.984 3.984c.182 0 .338-.032.468-.097s.26-.15.391-.254c.078-.104.156-.228.235-.371.078-.144.104-.293.078-.45l.039-.312c-.026-.182-.065-.345-.117-.488-.053-.144-.144-.267-.274-.371-.078-.105-.195-.183-.352-.235-.156-.052-.299-.078-.43-.078h-2.382c-.13 0-.273.026-.43.078-.156.052-.273.13-.351.235-.13.104-.222.227-.274.37-.052.144-.09.307-.117.489l.04.312c-.027.157 0 .306.077.45.078.143.157.267.235.37.13.105.26.19.39.255s.287.097.47.097h2.304zm.039-.664h-2.383c-.104 0-.215-.052-.332-.156-.117-.104-.163-.221-.137-.352l-.039-.312c.026-.156.085-.28.176-.371.091-.091.215-.137.371-.137h2.305c.156 0 .28.046.37.137.092.091.15.215.177.37l-.04.313c.027.13-.019.248-.136.352-.117.104-.228.156-.332.156zm-3.867 8.36c.625 0 1.406-.17 2.343-.508.938-.339 1.875-.755 2.813-1.25.86-.469 1.621-.977 2.285-1.524.664-.547.983-1.028.957-1.445.026-.26-.006-.508-.098-.742-.09-.235-.201-.417-.332-.547-.156-.156-.338-.273-.547-.352-.208-.078-.455-.117-.742-.117-.104 0-.228.02-.37.059-.144.039-.268.11-.372.215-.156.078-.306.175-.45.293-.142.117-.305.254-.487.41-.13.13-.293.26-.489.39-.195.13-.358.248-.488.352-.208.13-.39.234-.547.313-.156.078-.325.117-.508.117.026-.157.007-.306-.058-.45-.065-.143-.137-.28-.215-.41-.182-.208-.397-.358-.645-.449-.247-.091-.54-.163-.879-.215-.26-.026-.546-.039-.859-.039h-.82c-.104 0-.189.007-.254.02-.065.013-.137.02-.215.02-.078 0-.195-.046-.351-.137-.157-.092-.326-.19-.508-.293-.235-.13-.482-.28-.742-.45-.26-.169-.586-.319-.977-.449-.339-.13-.762-.247-1.27-.351-.507-.105-1.06-.157-1.66-.157l.122.003-.005-1.018c.02-.059.01-.114-.029-.165l-.049-.05c-.078-.065-.143-.098-.195-.098H2.273c-.052 0-.117.033-.195.098s-.104.137-.078.215l-.04 7.343c.027.105.066.19.118.254.052.065.13.098.235.098H6.96c.104 0 .182-.033.234-.098.052-.065.091-.15.117-.254l-.005-.877.076.023c.083.027.175.062.277.103l.16.068c.39.17.795.358 1.211.566.39.157.775.326 1.153.508.377.182.774.339 1.191.469.365.156.749.28 1.152.37.404.092.775.138 1.114.138zm-7.032-1.68H2.664l-.039-6.68h4.023l-.033 5.689-.006.014.006.019-.006.958zm7.07 1.016c-.338 0-.683-.046-1.034-.137-.352-.091-.723-.202-1.114-.332-.364-.156-.735-.32-1.113-.488-.378-.17-.723-.332-1.035-.489-.287-.13-.54-.247-.762-.351-.221-.104-.45-.196-.684-.274-.182-.078-.358-.136-.527-.176l-.106-.022-.022-4.096.172.003c.33.01.638.038.926.082l.28.05c.456.09.853.2 1.192.331.364.13.664.267.898.41.234.144.469.28.703.41.104.079.215.15.332.215.117.065.215.124.293.176.104.052.202.091.293.117.091.026.202.04.332.04.052 0 .117-.007.195-.02.079-.013.157-.02.235-.02h.683c.248 0 .515.013.801.04.235.025.469.07.703.136.235.065.39.163.47.293.103.078.162.176.175.293l.007.098h-5.34c-.058 0-.116.018-.175.055l-.059.042c-.078.065-.104.15-.078.254-.026.078 0 .15.078.215.079.065.157.098.235.098h5.351c.04 0 .079-.008.118-.025l.022-.011.001.001.055.035c.26.078.508.084.742.02.234-.066.482-.164.742-.294.234-.13.475-.286.723-.468.247-.183.462-.365.644-.547.26-.183.508-.365.742-.547.235-.183.43-.274.586-.274.157 0 .306.02.45.059.143.039.24.11.293.215.13.078.208.189.234.332.026.143.052.306.078.488-.026.26-.325.619-.898 1.074-.573.456-1.276.905-2.11 1.348-.807.443-1.653.827-2.539 1.152-.885.326-1.614.489-2.187.489z" transform="translate(-30 -123) translate(20 117) translate(10 6)"/>
</svg>
