<?xml version="1.0" encoding="UTF-8"?>
<svg width="20px" height="15px" viewBox="0 0 20 15" version="1.1" xmlns="http://www.w3.org/2000/svg" xmlns:xlink="http://www.w3.org/1999/xlink">
    <title>ic_notebook</title>
    <g id="系統設計Guideline" stroke="none" stroke-width="1" fill="none" fill-rule="evenodd">
        <g id="icon" transform="translate(-676.000000, -367.000000)" fill="#67757C" fill-rule="nonzero">
            <g id="ic_notebook" transform="translate(676.000000, 365.000000)">
                <path d="M17.5569661,16.875 C17.8065321,16.875 18.0249023,16.831326 18.2120768,16.7439779 C18.3992513,16.6566298 18.5677083,16.5380859 18.7174479,16.3883464 C18.8422309,16.2635634 18.9545356,16.1013455 19.054362,15.9016927 C19.1541884,15.7020399 19.1916233,15.4899089 19.1666667,15.2652995 L19.1666667,15.2652995 L19.2041016,5.68196615 C19.179145,5.48231337 19.1292318,5.28266059 19.054362,5.08300781 C18.9794922,4.88335503 18.8547092,4.70865885 18.680013,4.55891927 C18.5801866,4.40917969 18.4242079,4.296875 18.2120768,4.22200521 C17.9999457,4.14713542 17.7940538,4.10970052 17.594401,4.10970052 L17.594401,4.10970052 L14.0524349,4.11041667 L14.0380859,2.83691406 C14.0580512,2.75705295 14.046072,2.68917101 14.0021484,2.63326823 L13.9632161,2.59358724 C13.8883464,2.53119575 13.8259549,2.5 13.7760417,2.5 C13.6512587,2.5 13.5639106,2.53119575 13.5139974,2.59358724 C13.4640842,2.65597873 13.4266493,2.73708767 13.4016927,2.83691406 L13.4016927,2.83691406 L13.4166016,4.11041667 L5.78660156,4.11041667 L5.80240885,2.83691406 C5.78577112,2.77036314 5.76358748,2.71213108 5.73585793,2.66221788 L5.69010417,2.59358724 C5.64019097,2.53119575 5.55284288,2.5 5.4280599,2.5 C5.3781467,2.5 5.31575521,2.53119575 5.24088542,2.59358724 C5.16601562,2.65597873 5.14105903,2.73708767 5.16601562,2.83691406 L5.16601562,2.83691406 L5.15076823,4.11041667 L1.60970052,4.10970052 C1.45996094,4.10970052 1.30671183,4.13075765 1.14995321,4.17287191 L0.99202474,4.22200521 C0.779893663,4.296875 0.623914931,4.40917969 0.524088542,4.55891927 C0.349392361,4.70865885 0.224609375,4.88335503 0.149739583,5.08300781 C0.0748697917,5.28266059 0.0249565972,5.48231337 0,5.68196615 L0,5.68196615 L0.0374348958,15.2652995 C0.0124782986,15.4899089 0.0499131944,15.7020399 0.149739583,15.9016927 C0.249565972,16.1013455 0.36187066,16.2635634 0.486653646,16.3883464 C0.636393229,16.5380859 0.80485026,16.6566298 0.99202474,16.7439779 C1.17919922,16.831326 1.39756944,16.875 1.64713542,16.875 L1.64713542,16.875 L17.5569661,16.875 Z M17.594401,16.2386068 L1.60970052,16.2386068 C1.48491753,16.2386068 1.36013455,16.2136502 1.23535156,16.163737 C1.11056858,16.1138238 1.02322049,16.038954 0.973307292,15.9391276 C0.848524306,15.8642578 0.767415365,15.7706706 0.729980469,15.6583659 C0.692545573,15.5460612 0.661349826,15.4150391 0.636393229,15.2652995 L0.636393229,15.2652995 L0.673828125,5.68196615 C0.648871528,5.55718316 0.667588976,5.43863932 0.729980469,5.32633464 C0.792371962,5.21402995 0.861002604,5.10796441 0.935872396,5.00813802 C1.03569878,4.93326823 1.13552517,4.87087674 1.23535156,4.82096354 C1.33517795,4.77105035 1.47243924,4.74609375 1.64713542,4.74609375 L1.64713542,4.74609375 L5.14326823,4.74625 L5.12858073,6.01888021 C5.14521846,6.0687934 5.1674021,6.11593364 5.19513166,6.16030093 L5.24088542,6.22477214 C5.29079861,6.28716363 5.3656684,6.31835938 5.46549479,6.31835938 C5.54036458,6.31835938 5.61523437,6.28716363 5.69010417,6.22477214 C5.76497396,6.16238064 5.78993056,6.09375 5.76497396,6.01888021 L5.76497396,6.01888021 L5.7799349,4.74625 L13.4241016,4.74625 L13.4391276,6.01888021 C13.4191623,6.07877604 13.4311415,6.13467882 13.4750651,6.18658854 L13.5139974,6.22477214 C13.5888672,6.28716363 13.663737,6.31835938 13.7386068,6.31835938 C13.8384332,6.31835938 13.913303,6.28716363 13.9632161,6.22477214 C14.0131293,6.16238064 14.0505642,6.09375 14.0755208,6.01888021 L14.0755208,6.01888021 L14.0599349,4.74625 L17.5569661,4.74609375 C17.6967231,4.74609375 17.8125217,4.76206597 17.904362,4.79401042 L17.96875,4.82096354 C18.0685764,4.87087674 18.1684028,4.93326823 18.2682292,5.00813802 C18.343099,5.10796441 18.4117296,5.21402995 18.4741211,5.32633464 C18.5365126,5.43863932 18.55523,5.55718316 18.5302734,5.68196615 L18.5302734,5.68196615 L18.5677083,15.2652995 C18.5427517,15.4150391 18.511556,15.5460612 18.4741211,15.6583659 C18.4366862,15.7706706 18.3555773,15.8642578 18.2307943,15.9391276 C18.1808811,16.038954 18.093533,16.1138238 17.96875,16.163737 C17.843967,16.2136502 17.719184,16.2386068 17.594401,16.2386068 L17.594401,16.2386068 Z M16.0221354,8.56445312 C16.0720486,8.56445312 16.1344401,8.53325738 16.2093099,8.47086589 C16.2841797,8.40847439 16.3091363,8.33984375 16.2841797,8.26497396 C16.3091363,8.16514757 16.2841797,8.08403863 16.2093099,8.02164714 C16.1344401,7.95925564 16.0720486,7.9280599 16.0221354,7.9280599 L16.0221354,7.9280599 L3.18196615,7.9280599 C3.13205295,7.9280599 3.06966146,7.95925564 2.99479167,8.02164714 C2.91992188,8.08403863 2.89496528,8.16514757 2.91992188,8.26497396 C2.89496528,8.33984375 2.91992188,8.40847439 2.99479167,8.47086589 C3.06966146,8.53325738 3.13205295,8.56445312 3.18196615,8.56445312 L3.18196615,8.56445312 L16.0221354,8.56445312 Z M5.76497396,11.110026 C5.86480035,11.110026 5.93967014,11.0788303 5.98958333,11.0164388 C6.03949653,10.9540473 6.07693142,10.8854167 6.10188802,10.8105469 C6.07693142,10.7107205 6.03949653,10.6296115 5.98958333,10.5672201 C5.93967014,10.5048286 5.86480035,10.4736328 5.76497396,10.4736328 L5.76497396,10.4736328 L3.21940104,10.4736328 C3.11957465,10.4736328 3.04470486,10.5048286 2.99479167,10.5672201 C2.94487847,10.6296115 2.90744358,10.7107205 2.88248698,10.8105469 C2.90744358,10.8854167 2.94487847,10.9540473 2.99479167,11.0164388 C3.04470486,11.0788303 3.11957465,11.110026 3.21940104,11.110026 L3.21940104,11.110026 L5.76497396,11.110026 Z M10.8935547,11.110026 C10.9684245,11.110026 11.0432943,11.0788303 11.1181641,11.0164388 C11.1930339,10.9540473 11.2179905,10.8854167 11.1930339,10.8105469 C11.2179905,10.7107205 11.1930339,10.6296115 11.1181641,10.5672201 C11.0432943,10.5048286 10.9684245,10.4736328 10.8935547,10.4736328 L10.8935547,10.4736328 L8.31054688,10.4736328 C8.23567708,10.4736328 8.16080729,10.5048286 8.0859375,10.5672201 C8.01106771,10.6296115 7.98611111,10.7107205 8.01106771,10.8105469 C7.98611111,10.8854167 8.01106771,10.9540473 8.0859375,11.0164388 C8.16080729,11.0788303 8.23567708,11.110026 8.31054688,11.110026 L8.31054688,11.110026 L10.8935547,11.110026 Z M15.9847005,11.110026 C16.0845269,11.110026 16.1593967,11.0788303 16.2093099,11.0164388 C16.2592231,10.9540473 16.296658,10.8854167 16.3216146,10.8105469 C16.296658,10.7107205 16.2592231,10.6296115 16.2093099,10.5672201 C16.1593967,10.5048286 16.0845269,10.4736328 15.9847005,10.4736328 L15.9847005,10.4736328 L13.4391276,10.4736328 C13.3393012,10.4736328 13.2644314,10.5048286 13.2145182,10.5672201 C13.164605,10.6296115 13.1271701,10.7107205 13.1022135,10.8105469 C13.1271701,10.8854167 13.164605,10.9540473 13.2145182,11.0164388 C13.2644314,11.0788303 13.3393012,11.110026 13.4391276,11.110026 L13.4391276,11.110026 L15.9847005,11.110026 Z M5.80240885,13.6930339 C5.85232205,13.6930339 5.91471354,13.6618381 5.98958333,13.5994466 C6.06445312,13.5370551 6.08940972,13.4559462 6.06445312,13.3561198 C6.08940972,13.28125 6.06445312,13.2126194 5.98958333,13.1502279 C5.91471354,13.0878364 5.85232205,13.0566406 5.80240885,13.0566406 L5.80240885,13.0566406 L3.18196615,13.0566406 C3.13205295,13.0566406 3.06966146,13.0878364 2.99479167,13.1502279 C2.91992188,13.2126194 2.89496528,13.28125 2.91992188,13.3561198 C2.89496528,13.4559462 2.91992188,13.5370551 2.99479167,13.5994466 C3.06966146,13.6618381 3.13205295,13.6930339 3.18196615,13.6930339 L3.18196615,13.6930339 L5.80240885,13.6930339 Z M10.8561198,13.6930339 C10.9809028,13.6930339 11.0682509,13.6618381 11.1181641,13.5994466 C11.1680773,13.5370551 11.2055122,13.4559462 11.2304688,13.3561198 C11.2055122,13.28125 11.1680773,13.2126194 11.1181641,13.1502279 C11.0682509,13.0878364 10.9809028,13.0566406 10.8561198,13.0566406 L10.8561198,13.0566406 L8.34798177,13.0566406 C8.22319878,13.0566406 8.13585069,13.0878364 8.0859375,13.1502279 C8.03602431,13.2126194 7.99858941,13.28125 7.97363281,13.3561198 C7.99858941,13.4559462 8.03602431,13.5370551 8.0859375,13.5994466 C8.13585069,13.6618381 8.22319878,13.6930339 8.34798177,13.6930339 L8.34798177,13.6930339 L10.8561198,13.6930339 Z M16.0221354,13.6930339 C16.0720486,13.6930339 16.1344401,13.6618381 16.2093099,13.5994466 C16.2841797,13.5370551 16.3091363,13.4559462 16.2841797,13.3561198 C16.3091363,13.28125 16.2841797,13.2126194 16.2093099,13.1502279 C16.1344401,13.0878364 16.0720486,13.0566406 16.0221354,13.0566406 L16.0221354,13.0566406 L13.4016927,13.0566406 C13.3517795,13.0566406 13.289388,13.0878364 13.2145182,13.1502279 C13.1396484,13.2126194 13.1146918,13.28125 13.1396484,13.3561198 C13.1146918,13.4559462 13.1396484,13.5370551 13.2145182,13.5994466 C13.289388,13.6618381 13.3517795,13.6930339 13.4016927,13.6930339 L13.4016927,13.6930339 L16.0221354,13.6930339 Z" id=""></path>
            </g>
        </g>
    </g>
</svg>