<?xml version="1.0" encoding="UTF-8"?>
<svg width="19px" height="20px" viewBox="0 0 19 20" version="1.1" xmlns="http://www.w3.org/2000/svg" xmlns:xlink="http://www.w3.org/1999/xlink">
    <title>ic_notepen</title>
    <g id="系統設計Guideline" stroke="none" stroke-width="1" fill="none" fill-rule="evenodd">
        <g id="icon" transform="translate(-676.000000, -321.000000)" fill="#67757C" fill-rule="nonzero">
            <g id="ic_notepen" transform="translate(676.000000, 321.000000)">
                <path d="M1.27278646,3.54654948 C1.22287326,3.54654948 1.16048177,3.57774523 1.08561198,3.64013672 C1.01074219,3.70252821 0.98578559,3.78363715 1.01074219,3.88346354 L1.01074219,3.88346354 L0.973307292,19.1943359 C0.998263889,19.2941623 1.03569878,19.3752713 1.08561198,19.4376628 C1.13552517,19.5000543 1.21039497,19.53125 1.31022135,19.53125 L1.31022135,19.53125 L14.7119141,19.53125 C14.8117405,19.53125 14.8866102,19.5000543 14.9365234,19.4376628 C14.9864366,19.3752713 15.0238715,19.2941623 15.0488281,19.1943359 L15.0488281,19.1943359 L15.0113932,3.88346354 C15.0363498,3.78363715 15.0113932,3.70252821 14.9365234,3.64013672 C14.8616536,3.57774523 14.7992622,3.54654948 14.749349,3.54654948 L14.749349,3.54654948 L11.866862,3.54654948 L11.8294271,2.61067708 C11.8543837,2.51085069 11.8294271,2.42974175 11.7545573,2.36735026 C11.6796875,2.30495877 11.6048177,2.27376302 11.5299479,2.27376302 L11.5299479,2.27376302 L10.4443359,2.27376302 C10.4443359,1.94932726 10.3757053,1.66856554 10.238444,1.43147786 C10.1011827,1.19439019 9.95768229,0.988498264 9.80794271,0.813802083 C9.60828993,0.6640625 9.40863715,0.551757812 9.20898437,0.476888021 C9.0093316,0.402018229 8.78472222,0.364583333 8.53515625,0.364583333 L8.53515625,0.364583333 L7.78645833,0.364583333 C7.53689236,0.364583333 7.31228299,0.402018229 7.11263021,0.476888021 C6.91297743,0.551757812 6.71332465,0.6640625 6.51367188,0.813802083 C6.36393229,0.988498264 6.22043186,1.19439019 6.08317057,1.43147786 C5.94590929,1.66856554 5.87727865,1.94932726 5.87727865,2.27376302 L5.87727865,2.27376302 L4.4547526,2.27376302 C4.40483941,2.27376302 4.34244792,2.30495877 4.26757812,2.36735026 C4.19270833,2.42974175 4.16775174,2.51085069 4.19270833,2.61067708 L4.19270833,2.61067708 L4.15527344,3.54654948 L4.15527344,3.54654948 L1.27278646,3.54654948 Z M4.79166667,3.54654948 L4.82910156,2.91015625 L6.13932292,2.91015625 C6.2641059,2.91015625 6.35145399,2.8789605 6.40136719,2.81656901 C6.45128038,2.75417752 6.48871528,2.68554688 6.51367188,2.61067708 C6.48871528,2.36111111 6.50743273,2.13650174 6.56982422,1.93684896 C6.63221571,1.73719618 6.71332465,1.5625 6.81315104,1.41276042 C6.93793403,1.28797743 7.07519531,1.18815104 7.2249349,1.11328125 C7.37467448,1.03841146 7.56184896,1.00097656 7.78645833,1.00097656 L7.78645833,1.00097656 L8.53515625,1.00097656 C8.75976562,1.00097656 8.9469401,1.03841146 9.09667969,1.11328125 C9.24641927,1.18815104 9.38368056,1.28797743 9.50846354,1.41276042 C9.60828993,1.5625 9.68939887,1.73719618 9.75179036,1.93684896 C9.81418186,2.13650174 9.83289931,2.36111111 9.80794271,2.61067708 C9.83289931,2.68554688 9.8703342,2.75417752 9.9202474,2.81656901 C9.97016059,2.8789605 10.0575087,2.91015625 10.1822917,2.91015625 L10.1822917,2.91015625 L11.1930339,2.91015625 L11.2304687,3.54654948 L11.2304687,3.54654948 L4.79166667,3.54654948 Z M17.2949219,18.5579427 C17.3448351,18.5579427 17.4009874,18.5392253 17.4633789,18.5017904 C17.5257704,18.4643555 17.5569661,18.4082031 17.5569661,18.3333333 L17.5569661,18.3333333 L18.2307943,15.9375 C18.2058377,15.9375 18.1995985,15.9250217 18.2120768,15.9000651 L18.218316,15.8792679 C18.218316,15.8681761 18.2099971,15.8626302 18.1933594,15.8626302 L18.1933594,15.8626302 L18.2307943,3.24707031 C18.2058377,3.14724392 18.1684028,3.06613498 18.1184896,3.00374349 C18.0685764,2.941352 17.9937066,2.91015625 17.8938802,2.91015625 L17.8938802,2.91015625 L16.6585286,2.91015625 C16.5337457,2.91015625 16.4463976,2.941352 16.3964844,3.00374349 C16.3465712,3.06613498 16.3091363,3.14724392 16.2841797,3.24707031 L16.2841797,3.24707031 L16.3216146,15.8626302 C16.296658,15.8626302 16.2904188,15.8751085 16.3028971,15.9000651 C16.3153754,15.9250217 16.3216146,15.9375 16.3216146,15.9375 L16.3216146,15.9375 L16.9954427,18.3333333 C16.9704861,18.4082031 16.9954427,18.4643555 17.0703125,18.5017904 C17.1451823,18.5392253 17.2075738,18.5579427 17.257487,18.5579427 L17.257487,18.5579427 L17.2949219,18.5579427 Z M17.5591667,15.0766667 L16.955,15.0766667 L16.9275,6.1275 L16.8878174,6.12370809 C16.8441433,6.11590915 16.8067084,6.10031128 16.7755127,6.07691447 L16.7333984,6.03597005 C16.6834852,5.97357856 16.6460503,5.89246962 16.6210938,5.79264323 C16.6460503,5.71777344 16.6834852,5.6491428 16.7333984,5.5867513 C16.7833116,5.52435981 16.8581814,5.49316406 16.9580078,5.49316406 L16.9258333,5.49583333 L16.9205729,3.54654948 L17.594401,3.54654948 L17.5883333,5.495 L17.6273437,5.49690755 C17.6932292,5.50439453 17.745638,5.52311198 17.7845703,5.5530599 L17.8190104,5.5867513 C17.8689236,5.6491428 17.9063585,5.71777344 17.9313151,5.79264323 C17.9063585,5.89246962 17.8689236,5.97357856 17.8190104,6.03597005 C17.7690972,6.09836155 17.6817491,6.12955729 17.5569661,6.12955729 L17.5866667,6.12833333 L17.5591667,15.0766667 Z M14.375,18.8948568 L1.64713542,18.8948568 L1.60970052,4.18294271 L14.4124349,4.18294271 L14.375,18.8948568 Z M17.5569661,6.12955729 L17.5866667,6.12833333 L17.5883333,5.495 L17.5569661,5.49316406 L17.5569661,5.49316406 L16.9580078,5.49316406 L16.9258333,5.49583333 L16.9275,6.1275 L16.9580078,6.12955729 L16.9580078,6.12955729 L17.5569661,6.12955729 Z M12.8027344,17.6220703 C12.8776042,17.6220703 12.952474,17.5908746 13.0273437,17.5284831 C13.1022135,17.4660916 13.1271701,17.3849826 13.1022135,17.2851562 L13.1022135,17.2851562 L13.1396484,5.79264323 C13.1146918,5.71777344 13.0772569,5.6491428 13.0273437,5.5867513 C12.9774306,5.52435981 12.8900825,5.49316406 12.7652995,5.49316406 L12.7652995,5.49316406 L3.21940104,5.49316406 C3.11957465,5.49316406 3.04470486,5.52435981 2.99479167,5.5867513 C2.94487847,5.6491428 2.90744358,5.71777344 2.88248698,5.79264323 L2.88248698,5.79264323 L2.91992188,17.2851562 C2.89496528,17.3849826 2.91992188,17.4660916 2.99479167,17.5284831 C3.06966146,17.5908746 3.13205295,17.6220703 3.18196615,17.6220703 L3.18196615,17.6220703 L12.8027344,17.6220703 Z M12.5032552,16.9856771 L3.51888021,16.9856771 L3.5563151,6.12955729 L12.4658203,6.12955729 L12.5032552,16.9856771 Z M10.5940755,8.67513021 C10.6439887,8.67513021 10.7063802,8.64393446 10.78125,8.58154297 C10.8561198,8.51915148 10.8810764,8.43804253 10.8561198,8.33821615 C10.8810764,8.26334635 10.8561198,8.19471571 10.78125,8.13232422 C10.7063802,8.06993273 10.6439887,8.03873698 10.5940755,8.03873698 L10.5940755,8.03873698 L5.4280599,8.03873698 C5.3781467,8.03873698 5.31575521,8.06993273 5.24088542,8.13232422 C5.16601562,8.19471571 5.14105903,8.26334635 5.16601562,8.33821615 C5.14105903,8.43804253 5.16601562,8.51915148 5.24088542,8.58154297 C5.31575521,8.64393446 5.3781467,8.67513021 5.4280599,8.67513021 L5.4280599,8.67513021 L10.5940755,8.67513021 Z M10.5566406,11.2207031 C10.656467,11.2207031 10.7313368,11.1895074 10.78125,11.1271159 C10.8311632,11.0647244 10.8685981,10.9960938 10.8935547,10.921224 C10.8685981,10.8213976 10.8311632,10.7402886 10.78125,10.6778971 C10.7313368,10.6155056 10.656467,10.5843099 10.5566406,10.5843099 L10.5566406,10.5843099 L5.46549479,10.5843099 C5.3656684,10.5843099 5.29079861,10.6155056 5.24088542,10.6778971 C5.19097222,10.7402886 5.15353733,10.8213976 5.12858073,10.921224 C5.15353733,10.9960938 5.19097222,11.0647244 5.24088542,11.1271159 C5.29079861,11.1895074 5.3656684,11.2207031 5.46549479,11.2207031 L5.46549479,11.2207031 L10.5566406,11.2207031 Z M10.5940755,13.766276 C10.6439887,13.766276 10.7063802,13.7350803 10.78125,13.6726888 C10.8561198,13.6102973 10.8810764,13.5416667 10.8561198,13.4667969 C10.8810764,13.3669705 10.8561198,13.2858615 10.78125,13.2234701 C10.7063802,13.1610786 10.6439887,13.1298828 10.5940755,13.1298828 L10.5940755,13.1298828 L5.4280599,13.1298828 C5.3781467,13.1298828 5.31575521,13.1610786 5.24088542,13.2234701 C5.16601562,13.2858615 5.14105903,13.3669705 5.16601562,13.4667969 C5.14105903,13.5416667 5.16601562,13.6102973 5.24088542,13.6726888 C5.31575521,13.7350803 5.3781467,13.766276 5.4280599,13.766276 L5.4280599,13.766276 L10.5940755,13.766276 Z M16.9575,15.7133333 L16.9205729,15.7128906 C16.8706597,15.7128906 16.8082682,15.6816949 16.7333984,15.6193034 C16.6585286,15.5569119 16.633572,15.475803 16.6585286,15.3759766 C16.633572,15.3011068 16.6585286,15.2324761 16.7333984,15.1700846 C16.8082682,15.1076931 16.8706597,15.0764974 16.9205729,15.0764974 L16.9205729,15.0764974 L16.955,15.0766667 L16.9575,15.7133333 Z M17.5591667,15.0766667 L17.594401,15.0764974 C17.6692708,15.0764974 17.7441406,15.1076931 17.8190104,15.1700846 C17.8938802,15.2324761 17.9188368,15.3011068 17.8938802,15.3759766 C17.9188368,15.475803 17.8938802,15.5569119 17.8190104,15.6193034 C17.7441406,15.6816949 17.6692708,15.7128906 17.594401,15.7128906 L17.594401,15.7128906 L17.5566667,15.7133333 L17.5591667,15.0766667 Z M16.9575,15.7133333 L17.5566667,15.7133333 L17.5569661,15.8251953 L17.2949219,17.023112 L16.9205729,15.8251953 L16.9580078,15.8251953 L16.9575,15.7133333 Z" id=""></path>
            </g>
        </g>
    </g>
</svg>