<?xml version="1.0" encoding="UTF-8"?>
<svg width="21px" height="20px" viewBox="0 0 21 20" version="1.1" xmlns="http://www.w3.org/2000/svg" xmlns:xlink="http://www.w3.org/1999/xlink">
    <title>ic_payment_managment</title>
    <g id="系統設計Guideline" stroke="none" stroke-width="1" fill="none" fill-rule="evenodd">
        <g id="icon" transform="translate(-676.000000, -277.000000)" fill="#67757C" fill-rule="nonzero">
            <g id="ic_payment_managment" transform="translate(676.000000, 277.000000)">
                <path d="M19.7786458,3.984375 C19.8567708,3.984375 19.9283854,3.95182292 19.9934896,3.88671875 C20.0585938,3.82161458 20.0911458,3.75 20.0911458,3.671875 C20.0911458,3.59375 20.0651042,3.52213542 20.0130208,3.45703125 C19.9609375,3.39192708 19.8958333,3.34635417 19.8177083,3.3203125 L19.8177083,3.3203125 L10.2864583,0 L10.2864583,0 L10.0520833,0 L0.247395833,3.359375 C0.169270833,3.38541667 0.104166667,3.43098958 0.0520833333,3.49609375 C0,3.56119792 -0.0130208333,3.6328125 0.0130208333,3.7109375 C0.0130208333,3.7890625 0.0455729167,3.85416667 0.110677083,3.90625 C0.17578125,3.95833333 0.247395833,3.984375 0.325520833,3.984375 L0.325520833,3.984375 L19.7786458,3.984375 Z M17.7864583,3.3203125 L2.35677083,3.3203125 L10.1692708,0.703125 L17.7864583,3.3203125 Z M5.67708333,13.3203125 C5.78125,13.3203125 5.86588542,13.2877604 5.93098958,13.2226562 C5.99609375,13.1575521 6.02864583,13.0859375 6.02864583,13.0078125 L6.02864583,13.0078125 L6.02864583,5.6640625 C6.02864583,5.5859375 5.99609375,5.51432292 5.93098958,5.44921875 C5.86588542,5.38411458 5.78125,5.3515625 5.67708333,5.3515625 L5.67708333,5.3515625 L3.02083333,5.3515625 C2.94270833,5.3515625 2.87109375,5.38411458 2.80598958,5.44921875 C2.74088542,5.51432292 2.70833333,5.5859375 2.70833333,5.6640625 L2.70833333,5.6640625 L2.70833333,13.0078125 C2.70833333,13.0859375 2.74088542,13.1575521 2.80598958,13.2226562 C2.87109375,13.2877604 2.94270833,13.3203125 3.02083333,13.3203125 L3.02083333,13.3203125 L5.67708333,13.3203125 Z M17.7083333,13.3203125 C17.7864583,13.3203125 17.8580729,13.2877604 17.9231771,13.2226562 C17.9882812,13.1575521 18.0208333,13.0859375 18.0208333,13.0078125 L18.0208333,13.0078125 L18.0208333,5.6640625 C18.0208333,5.5859375 17.9882812,5.51432292 17.9231771,5.44921875 C17.8580729,5.38411458 17.7864583,5.3515625 17.7083333,5.3515625 L17.7083333,5.3515625 L15.0130208,5.3515625 C14.9348958,5.3515625 14.8632812,5.38411458 14.7981771,5.44921875 C14.7330729,5.51432292 14.7005208,5.5859375 14.7005208,5.6640625 L14.7005208,5.6640625 L14.7005208,13.0078125 C14.7005208,13.0859375 14.7330729,13.1575521 14.7981771,13.2226562 C14.8632812,13.2877604 14.9348958,13.3203125 15.0130208,13.3203125 L15.0130208,13.3203125 L17.7083333,13.3203125 Z M10.3645833,13.0078125 C10.4427083,13.0078125 10.5143229,12.9752604 10.5794271,12.9101562 C10.6445312,12.8450521 10.6770833,12.7604167 10.6770833,12.65625 L10.6770833,12.65625 L10.6770833,11.9921875 C10.6770833,11.9726562 10.6750488,11.9535319 10.6709798,11.9348145 L10.66125,11.9075 L10.8138021,11.8896484 C10.8658854,11.8815104 10.9163411,11.8713379 10.9651693,11.8591309 L11.1067708,11.8164062 C11.2890625,11.7513021 11.4453125,11.6536458 11.5755208,11.5234375 C11.7057292,11.4192708 11.8033854,11.2760417 11.8684896,11.09375 C11.9335937,10.9114583 11.9661458,10.7161458 11.9661458,10.5078125 C11.9661458,10.2994792 11.9401042,10.1171875 11.8880208,9.9609375 C11.8359375,9.8046875 11.7578125,9.67447917 11.6536458,9.5703125 C11.5494792,9.46614583 11.4257812,9.36848958 11.2825521,9.27734375 C11.1393229,9.18619792 10.9895833,9.1015625 10.8333333,9.0234375 L10.8333333,9.0234375 L10.4817708,8.828125 C10.1432292,8.64583333 9.921875,8.50260417 9.81770833,8.3984375 C9.71354167,8.29427083 9.66145833,8.125 9.66145833,7.890625 C9.66145833,7.55208333 9.77213542,7.34375 9.99348958,7.265625 C10.2148437,7.1875 10.3776042,7.1484375 10.4817708,7.1484375 C10.6119792,7.1484375 10.78125,7.1875 10.9895833,7.265625 C11.1979167,7.34375 11.3020833,7.55208333 11.3020833,7.890625 C11.3020833,7.99479167 11.3346354,8.07942708 11.3997396,8.14453125 C11.4648437,8.20963542 11.5364583,8.2421875 11.6145833,8.2421875 C11.71875,8.2421875 11.8033854,8.20963542 11.8684896,8.14453125 C11.9335937,8.07942708 11.9661458,7.99479167 11.9661458,7.890625 C11.9661458,7.68229167 11.9270833,7.49348958 11.8489583,7.32421875 C11.7708333,7.15494792 11.6666667,7.00520833 11.5364583,6.875 C11.40625,6.74479167 11.2565104,6.64713542 11.0872396,6.58203125 C10.9856771,6.54296875 10.8723958,6.515625 10.7473958,6.5 L10.6770833,6.49333333 L10.6770833,6.015625 C10.6770833,5.9375 10.6587728,5.87036133 10.6221517,5.81420898 L10.5794271,5.76171875 C10.5143229,5.69661458 10.4427083,5.6640625 10.3645833,5.6640625 C10.2604167,5.6640625 10.1757812,5.69661458 10.1106771,5.76171875 C10.0455729,5.82682292 10.0130208,5.91145833 10.0130208,6.015625 L10.0130208,6.015625 L10.0129167,6.54666667 L9.89583333,6.58203125 C9.75911458,6.63085938 9.63704427,6.69799805 9.5296224,6.78344727 L9.42708333,6.875 C9.296875,7.00520833 9.19270833,7.15494792 9.11458333,7.32421875 C9.03645833,7.49348958 8.99739583,7.68229167 8.99739583,7.890625 C8.99739583,8.125 9.0234375,8.31380208 9.07552083,8.45703125 C9.12760417,8.60026042 9.20572917,8.72395833 9.30989583,8.828125 C9.4140625,8.93229167 9.53776042,9.02994792 9.68098958,9.12109375 C9.82421875,9.21223958 9.97395833,9.296875 10.1302083,9.375 L10.1302083,9.375 L10.5208333,9.609375 C10.8333333,9.79166667 11.0416667,9.92838542 11.1458333,10.0195312 C11.25,10.1106771 11.3020833,10.2734375 11.3020833,10.5078125 C11.3020833,10.8463542 11.1979167,11.0546875 10.9895833,11.1328125 C10.78125,11.2109375 10.6119792,11.25 10.4817708,11.25 C10.3515625,11.25 10.1822917,11.2109375 9.97395833,11.1328125 C9.765625,11.0546875 9.66145833,10.8463542 9.66145833,10.5078125 C9.66145833,10.4296875 9.62890625,10.3580729 9.56380208,10.2929688 C9.49869792,10.2278646 9.42708333,10.1953125 9.34895833,10.1953125 C9.24479167,10.1953125 9.16015625,10.2278646 9.09505208,10.2929688 C9.02994792,10.3580729 8.99739583,10.4296875 8.99739583,10.5078125 C8.99739583,10.7161458 9.03645833,10.9114583 9.11458333,11.09375 C9.19270833,11.2760417 9.296875,11.4192708 9.42708333,11.5234375 C9.55729167,11.6536458 9.71354167,11.7513021 9.89583333,11.8164062 C9.94140625,11.8326823 9.98779297,11.8469238 10.0349935,11.8591309 L10.0479167,11.8616667 L10.0374349,11.8798828 C10.0292969,11.8977865 10.0231934,11.916097 10.0191243,11.9348145 L10.0130208,11.9921875 L10.0130208,12.65625 C10.0130208,12.7604167 10.0455729,12.8450521 10.1106771,12.9101562 C10.1757812,12.9752604 10.2604167,13.0078125 10.3645833,13.0078125 Z M5.36458333,12.65625 L3.37239583,12.65625 L3.37239583,6.015625 L5.36458333,6.015625 L5.36458333,12.65625 Z M17.3567708,12.65625 L15.3645833,12.65625 L15.3645833,6.015625 L17.3567708,6.015625 L17.3567708,12.65625 Z M19.7005208,20 C19.7786458,20 19.8502604,19.9674479 19.9153646,19.9023438 C19.9804688,19.8372396 20.0130208,19.7526042 20.0130208,19.6484375 L20.0130208,19.6484375 L20.0130208,16.9921875 C20.0130208,16.9140625 19.9804688,16.8424479 19.9153646,16.7773438 C19.8502604,16.7122396 19.7786458,16.6796875 19.7005208,16.6796875 L19.7005208,16.6796875 L18.6845833,16.68 L18.6848958,14.3359375 C18.6848958,14.2578125 18.6665853,14.1906738 18.6299642,14.1345215 L18.5872396,14.0820312 C18.5221354,14.0169271 18.4505208,13.984375 18.3723958,13.984375 L18.3723958,13.984375 L2.35677083,13.984375 C2.27864583,13.984375 2.20703125,14.0169271 2.14192708,14.0820312 C2.07682292,14.1471354 2.04427083,14.2317708 2.04427083,14.3359375 L2.04427083,14.3359375 L2.04375,16.68 L0.364583333,16.6796875 C0.286458333,16.6796875 0.219319661,16.697998 0.163167318,16.7346191 L0.110677083,16.7773438 C0.0455729167,16.8424479 0.0130208333,16.9140625 0.0130208333,16.9921875 L0.0130208333,16.9921875 L0.0130208333,19.6484375 C0.0130208333,19.7526042 0.0455729167,19.8372396 0.110677083,19.9023438 C0.17578125,19.9674479 0.260416667,20 0.364583333,20 L0.364583333,20 L19.7005208,20 Z M18.0208333,16.6796875 L2.70833333,16.6796875 L2.70833333,14.6484375 L18.0208333,14.6484375 L18.0208333,16.6796875 Z M19.3489583,19.3359375 L0.677083333,19.3359375 L0.677083333,17.34375 L19.3489583,17.34375 L19.3489583,19.3359375 Z" id=""></path>
            </g>
        </g>
    </g>
</svg>