<?xml version="1.0" encoding="UTF-8"?>
<svg width="21px" height="18px" viewBox="0 0 21 18" version="1.1" xmlns="http://www.w3.org/2000/svg" xmlns:xlink="http://www.w3.org/1999/xlink">
    <title>ic_version_control</title>
    <g id="系統設計Guideline" stroke="none" stroke-width="1" fill="none" fill-rule="evenodd">
        <g id="icon" transform="translate(-676.000000, -234.000000)" fill="#67757C" fill-rule="nonzero">
            <g id="ic_version_control" transform="translate(676.000000, 233.000000)">
                <path d="M19.6875,18.3072917 C19.765625,18.3072917 19.84375,18.2747396 19.921875,18.2096354 C20,18.1445312 20.0260417,18.0729167 20,17.9947917 L20,17.9947917 L20.0390625,1.97916667 C20.0130208,1.90104167 19.9739583,1.82942708 19.921875,1.76432292 C19.8697917,1.69921875 19.7786458,1.66666667 19.6484375,1.66666667 L19.6484375,1.66666667 L0.390625,1.66666667 C0.260416667,1.66666667 0.169270833,1.69921875 0.1171875,1.76432292 C0.0651041667,1.82942708 0.0260416667,1.90104167 0,1.97916667 L0,1.97916667 L0.0390625,17.9947917 C0.0130208333,18.0729167 0.0390625,18.1445312 0.1171875,18.2096354 C0.1953125,18.2747396 0.2734375,18.3072917 0.3515625,18.3072917 L0.3515625,18.3072917 L19.6875,18.3072917 Z M19.3423958,4.98697917 L0.695729167,4.98697917 L0.703125,2.33072917 L19.3359375,2.33072917 L19.3423958,4.98697917 Z M2.265625,4.24479167 C2.36979167,4.24479167 2.46744792,4.20572917 2.55859375,4.12760417 C2.64973958,4.04947917 2.68229167,3.9453125 2.65625,3.81510417 C2.68229167,3.7109375 2.64973958,3.61328125 2.55859375,3.52213542 C2.46744792,3.43098958 2.36979167,3.38541667 2.265625,3.38541667 C2.13541667,3.38541667 2.03776042,3.43098958 1.97265625,3.52213542 C1.90755208,3.61328125 1.86197917,3.7109375 1.8359375,3.81510417 C1.86197917,3.9453125 1.90755208,4.04947917 1.97265625,4.12760417 C2.03776042,4.20572917 2.13541667,4.24479167 2.265625,4.24479167 Z M3.90625,4.24479167 C4.03645833,4.24479167 4.140625,4.20572917 4.21875,4.12760417 C4.296875,4.04947917 4.34895833,3.9453125 4.375,3.81510417 C4.34895833,3.7109375 4.296875,3.61328125 4.21875,3.52213542 C4.140625,3.43098958 4.03645833,3.38541667 3.90625,3.38541667 C3.828125,3.38541667 3.73697917,3.43098958 3.6328125,3.52213542 C3.52864583,3.61328125 3.48958333,3.7109375 3.515625,3.81510417 C3.48958333,3.9453125 3.52864583,4.04947917 3.6328125,4.12760417 C3.73697917,4.20572917 3.828125,4.24479167 3.90625,4.24479167 Z M5.625,4.24479167 C5.703125,4.24479167 5.78776042,4.20572917 5.87890625,4.12760417 C5.97005208,4.04947917 6.00260417,3.9453125 5.9765625,3.81510417 C6.00260417,3.7109375 5.97005208,3.61328125 5.87890625,3.52213542 C5.78776042,3.43098958 5.703125,3.38541667 5.625,3.38541667 C5.46875,3.38541667 5.35807292,3.43098958 5.29296875,3.52213542 C5.22786458,3.61328125 5.18229167,3.7109375 5.15625,3.81510417 C5.18229167,3.9453125 5.22786458,4.04947917 5.29296875,4.12760417 C5.35807292,4.20572917 5.46875,4.24479167 5.625,4.24479167 Z M11.640625,13.6588542 C11.5885417,13.6588542 11.5234375,13.6914062 11.4453125,13.7565104 C11.3671875,13.8216146 11.3411458,13.8932292 11.3671875,13.9713542 L11.3671875,13.9713542 L11.328125,16.6666667 C11.3541667,16.7447917 11.3932292,16.8164062 11.4453125,16.8815104 C11.4973958,16.9466146 11.5755208,16.9791667 11.6796875,16.9791667 L11.6796875,16.9791667 L15,16.9791667 C15.1041667,16.9791667 15.1822917,16.9466146 15.234375,16.8815104 C15.2864583,16.8164062 15.3255208,16.7447917 15.3515625,16.6666667 L15.3515625,16.6666667 L15.3125,13.9713542 C15.3385417,13.8932292 15.3125,13.8216146 15.234375,13.7565104 C15.15625,13.6914062 15.0911458,13.6588542 15.0390625,13.6588542 L15.0390625,13.6588542 L13.5546875,13.6588542 L13.515625,11.9791667 C13.5416667,11.9010417 13.515625,11.8294271 13.4375,11.7643229 C13.359375,11.6992187 13.2942708,11.6666667 13.2421875,11.6666667 L13.2421875,11.6666667 L10.1953125,11.6666667 L10.2340625,11.0028125 L11.5234375,11.0026042 C11.6276042,11.0026042 11.7067708,10.9817708 11.7609375,10.9401042 L11.796875,10.9049479 C11.8489583,10.8398437 11.8880208,10.7552083 11.9140625,10.6510417 L11.9140625,10.6510417 L11.875,7.99479167 C11.9010417,7.890625 11.875,7.80598958 11.796875,7.74088542 C11.71875,7.67578125 11.640625,7.64322917 11.5625,7.64322917 L11.5625,7.64322917 L8.203125,7.64322917 C8.125,7.64322917 8.046875,7.67578125 7.96875,7.74088542 C7.890625,7.80598958 7.86458333,7.890625 7.890625,7.99479167 L7.890625,7.99479167 L7.8515625,10.6510417 C7.87760417,10.7552083 7.91666667,10.8398437 7.96875,10.9049479 C8.02083333,10.9700521 8.11197917,11.0026042 8.2421875,11.0026042 L8.2421875,11.0026042 L9.5703125,11.0026042 L9.53125,11.6666667 L9.53125,11.6666667 L6.5234375,11.6666667 C6.4453125,11.6666667 6.3671875,11.6992187 6.2890625,11.7643229 C6.2109375,11.8294271 6.18489583,11.9010417 6.2109375,11.9791667 L6.2109375,11.9791667 L6.171875,13.6588542 L6.171875,13.6588542 L5,13.6588542 C4.94791667,13.6588542 4.8828125,13.6914062 4.8046875,13.7565104 C4.7265625,13.8216146 4.70052083,13.8932292 4.7265625,13.9713542 L4.7265625,13.9713542 L4.6875,16.6666667 C4.71354167,16.7447917 4.75260417,16.8164062 4.8046875,16.8815104 C4.85677083,16.9466146 4.93489583,16.9791667 5.0390625,16.9791667 L5.0390625,16.9791667 L8.359375,16.9791667 C8.46354167,16.9791667 8.54166667,16.9466146 8.59375,16.8815104 C8.64583333,16.8164062 8.68489583,16.7447917 8.7109375,16.6666667 L8.7109375,16.6666667 L8.671875,13.9713542 C8.69791667,13.8932292 8.671875,13.8216146 8.59375,13.7565104 C8.515625,13.6914062 8.45052083,13.6588542 8.3984375,13.6588542 L8.3984375,13.6588542 L6.875,13.6588542 L6.9140625,12.3307292 L12.8515625,12.3307292 L12.890625,13.6588542 L12.890625,13.6588542 L11.640625,13.6588542 Z M11.171875,10.3385417 L8.5546875,10.3385417 L8.515625,8.30729167 L11.2109375,8.30729167 L11.171875,10.3385417 Z M8.0078125,16.3151042 L5.390625,16.3151042 L5.3515625,14.3229167 L8.046875,14.3229167 L8.0078125,16.3151042 Z M14.6484375,16.3151042 L12.03125,16.3151042 L11.9921875,14.3229167 L14.6875,14.3229167 L14.6484375,16.3151042 Z M0.6940625,5.65114583 L19.3440625,5.65114583 L19.375,17.6432292 L0.6640625,17.6432292 L0.6940625,5.65114583 Z" id=""></path>
            </g>
        </g>
    </g>
</svg>