<svg width="140" height="22" viewBox="0 0 140 22" xmlns="http://www.w3.org/2000/svg">
    <defs>
        <linearGradient x1="66.602%" y1="97.243%" x2="66.602%" y2="4.303%" id="bsh9smit2a">
            <stop stop-color="#242666" offset="0%"/>
            <stop stop-color="#32AAFF" offset="100%"/>
        </linearGradient>
        <linearGradient x1="100%" y1="50%" x2="0%" y2="50%" id="riplseqtmb">
            <stop stop-color="#242666" offset="0%"/>
            <stop stop-color="#32AAFF" offset="100%"/>
        </linearGradient>
    </defs>
    <g fill="none" fill-rule="evenodd">
        <path d="M87.453 22c-.849 0-1.41-.569-1.41-1.43v-9.678c0-.79.631-1.43 1.409-1.43l8.673-.002c1.084 0 1.626-.733 1.626-2.2s-.542-2.2-1.626-2.2h-8.673a1.42 1.42 0 0 1-1.408-1.43v-2.2c0-.861.56-1.43 1.409-1.43h8.78c1.844 0 3.479.564 4.708 1.663.966.891 2.121 2.894 2.121 5.597 0 2.168-.587 4.333-2.168 5.61-1.287 1.04-2.817 1.65-4.66 1.65h-4.662v6.05c0 .861-.56 1.43-1.41 1.43h-2.71zM125.731 0c.703 0 1.2.267 1.58.891l3.045 4.96L133.4.891c.38-.624.878-.89 1.58-.89h3.483c1.083 0 1.463.682.878 1.603l-6.205 10.157v8.88c0 .862-.468 1.337-1.317 1.337h-2.897c-.85 0-1.317-.475-1.317-1.336v-8.88L121.37 1.603C120.814.683 121.166 0 122.25 0h3.482zm-11.68 0c.79 0 1.259.356 1.522 1.07l6.674 19.364c.322.95-.088 1.544-1.083 1.544h-3.132c-.79 0-1.258-.356-1.493-1.099l-.995-2.97h-6.234l-1.024 2.97c-.264.743-.732 1.1-1.522 1.1h-3.161c-.995 0-1.405-.595-1.083-1.545l6.702-19.365c.264-.713.732-1.069 1.493-1.069h3.337zm-1.668 7.217-1.932 6.089h4.069l-2.137-6.089z" fill="#242666"/>
        <path d="M10.081 5.06c1.081 0 1.626 1.19 1.626 2.2 0 1.06-.456 2.02-1.36 2.178h6.452c.152-.703.22-1.44.22-2.178 0-.798-.1-1.535-.268-2.2h-6.67z" fill="url(#bsh9smit2a)" transform="translate(86.044)"/>
        <path d="M60.51.022c.848 0 1.316.475 1.316 1.336v2.02c0 .653-.117 1.1-.41 1.663L53.134 21.05c-.352.653-.82.95-1.552.95H48.89c-1.054 0-1.434-.653-.937-1.604L56.09 4.923h-7.346c-.85 0-1.318-.476-1.318-1.337V1.358c0-.86.469-1.336 1.318-1.336h11.765zM41.924 0c.599 0 1.084.492 1.084 1.1v19.8c0 .607-.485 1.1-1.084 1.1h-3.362a1.092 1.092 0 0 1-1.083-1.1V1.1c0-.608.485-1.1 1.083-1.1h3.362zm-9.864 0c.598 0 1.083.492 1.083 1.1v19.8c0 .607-.485 1.1-1.083 1.1h-3.362a1.091 1.091 0 0 1-1.083-1.1V1.1c0-.608.484-1.1 1.083-1.1h3.362zm47.266.022c.85 0 1.317.475 1.317 1.336v2.02c0 .653-.117 1.1-.41 1.663L71.953 21.05c-.352.653-.82.95-1.551.95h-2.693c-1.054 0-1.434-.653-.937-1.604l8.137-15.473h-7.346c-.85 0-1.317-.476-1.317-1.337V1.358c0-.86.468-1.336 1.317-1.336h11.765z" fill="#32AAFF"/>
        <g>
            <path d="m12.338 0 .257.004c4.595.134 8.292 3.866 8.292 8.434v4.574l-.004.253c-.135 4.536-3.916 8.185-8.545 8.185H8.55l-.34-.007a8.575 8.575 0 0 1-5.065-1.899v1.906H0V8.438l.004-.253C.14 3.649 3.92 0 8.549 0h3.79zm-1.62 4.95a5.773 5.773 0 0 0-5.771 5.775 5.773 5.773 0 0 0 5.771 5.775 5.773 5.773 0 0 0 5.772-5.775 5.773 5.773 0 0 0-5.772-5.775z" fill="url(#riplseqtmb)"/>
            <path d="m19.008 7.7.224.004c.954.033 1.728.278 2.102.657l.129.141c.326.393.524.9.524 1.454v2.088l-.01.206a2.261 2.261 0 0 1-.643 1.39l-.093.084c-.434.358-1.252.576-2.233.576h-3.757a5.753 5.753 0 0 0 1.239-3.575 5.75 5.75 0 0 0-.855-3.026l3.373.001z" fill="#EBAE2A"/>
        </g>
    </g>
</svg>
